<?xml version="1.0" encoding="utf-8"?>
<!-- Generator: Adobe Illustrator 25.2.3, SVG Export Plug-In . SVG Version: 6.00 Build 0)  -->
<svg version="1.1" xmlns="http://www.w3.org/2000/svg" xmlns:xlink="http://www.w3.org/1999/xlink" x="0px" y="0px"
	 viewBox="0 0 40 40" style="enable-background:new 0 0 40 40;" xml:space="preserve" width="40" height="40">
<style type="text/css">
	.st0{fill:#E5F5F7;}
	.st1{fill:#FFFFFF;}
	.st2{fill:#009EAC;}
	.st3{fill:none;stroke:#CBCCCE;stroke-width:2;stroke-miterlimit:10;}
	.st4{fill:#CBCCCE;}
	.st5{fill:#EEEEEE;}
	.st6{fill:#51565B;}
	.st7{fill:#1EA0DC;}
	.st8{fill:#4DBBC5;}
	.st9{fill:none;stroke:#009EAC;stroke-width:2;stroke-miterlimit:10;}
	.st10{fill:none;stroke:#FFFFFF;stroke-width:3;stroke-miterlimit:10;}
	.st11{fill:none;stroke:#FFFFFF;stroke-width:2;stroke-miterlimit:10;}
	.st12{fill:#FF0000;}
	.st13{fill:none;}
	.st14{display:none;}
	.st15{display:inline;}
	.st16{fill:#FFFFFF;stroke:#000000;stroke-width:2;stroke-miterlimit:10;}
	.st17{fill:none;stroke:#000000;stroke-width:2;stroke-linejoin:round;stroke-miterlimit:10;}
	.st18{fill:none;stroke:#000000;stroke-width:2;stroke-miterlimit:10;}
	.st19{display:inline;fill:#6A0000;}
	.st20{display:inline;fill:#1EA0DC;}
	.st21{display:inline;fill:#008CD2;}
	.st22{fill-rule:evenodd;clip-rule:evenodd;}
	.st23{display:inline;fill:none;stroke:#000000;stroke-linejoin:round;stroke-miterlimit:10;}
	.st24{fill:none;stroke:#000000;stroke-width:3.7091;stroke-linecap:round;stroke-miterlimit:10;}
	.st25{fill:none;stroke:#000000;stroke-width:2.2255;stroke-linecap:round;stroke-linejoin:round;stroke-miterlimit:10;}
	.st26{fill:none;stroke:#000000;stroke-width:3.7091;stroke-linecap:round;stroke-linejoin:round;stroke-miterlimit:10;}
	.st27{clip-path:url(#SVGID_2_);fill:none;stroke:#000000;stroke-width:1.1127;stroke-miterlimit:10;}
	.st28{display:inline;opacity:0.6;}
	.st29{display:inline;fill:none;stroke:#000000;stroke-width:3.7091;stroke-linecap:round;stroke-miterlimit:10;}
	
		.st30{display:inline;fill:none;stroke:#000000;stroke-width:2.2255;stroke-linecap:round;stroke-linejoin:round;stroke-miterlimit:10;}
	
		.st31{display:inline;fill:none;stroke:#000000;stroke-width:3.7091;stroke-linecap:round;stroke-linejoin:round;stroke-miterlimit:10;}
	.st32{clip-path:url(#SVGID_4_);fill:none;stroke:#000000;stroke-width:1.1127;stroke-miterlimit:10;}
	.st33{display:inline;fill:none;stroke:#000000;stroke-width:2;stroke-linejoin:round;stroke-miterlimit:10;}
	.st34{display:inline;fill:none;stroke:#000000;stroke-width:2;stroke-miterlimit:10;}
	.st35{display:inline;fill:#FFFFFF;stroke:#000000;stroke-width:2;stroke-miterlimit:10;}
	.st36{display:inline;fill:none;stroke:#009EAC;stroke-width:2;stroke-miterlimit:10;}
	.st37{display:inline;fill:none;stroke:#000000;stroke-width:2;stroke-miterlimit:6;}
	.st38{display:inline;fill:#FFFFFF;}
	.st39{display:inline;fill:#009EAC;}
	.st40{fill:none;stroke:#009EAC;stroke-width:2;stroke-linejoin:round;stroke-miterlimit:10;}
	.st41{display:inline;fill:none;stroke:#FFFFFF;stroke-width:2;stroke-miterlimit:10;}
	.st42{display:inline;fill:none;stroke:#000000;stroke-width:2;stroke-linejoin:bevel;stroke-miterlimit:10;}
	.st43{display:inline;fill:#FFFFFF;stroke:#009EAC;stroke-width:2;stroke-miterlimit:10;}
	.st44{display:inline;fill:#009EAC;stroke:#009EAC;stroke-width:2;stroke-miterlimit:10;}
	.st45{display:inline;fill:none;stroke:#FFFFFF;stroke-width:2;stroke-linejoin:bevel;stroke-miterlimit:10;}
	.st46{fill:#E6E6E6;}
	.st47{fill:#7FCED5;}
	.st48{fill:#73787C;}
</style>
<g id="レイヤー_1">
	<g>
		<path class="st1" d="M20,19h-6c0-3.3,2.7-6,6-6s6,2.7,6,6H20z"/>
		<path class="st1" d="M22,14h-4v-2c0-1.1,0.9-2,2-2h0c1.1,0,2,0.9,2,2V14z"/>
		<path class="st1" d="M20,27h3c0,1.6-1.4,3-3,3s-3-1.4-3-3H20z"/>
		<rect x="14" y="19" class="st1" width="12" height="7"/>
		<g>
			<path class="st1" d="M14,25c-0.4,0-0.8-0.3-1-0.7c-0.1-0.4,0-0.9,0.4-1.1l3-2c0.2-0.1,0.4-0.2,0.6-0.2c0.2,0,0.3,0,0.5,0.1
				c0.3,0.2,0.5,0.5,0.5,0.9v2c0,0.6-0.4,1-1,1H14z"/>
			<path class="st1" d="M17,22v2h-3L17,22 M17,20c-0.4,0-0.8,0.1-1.1,0.3l-3,2c-0.7,0.5-1.1,1.4-0.8,2.2c0.3,0.8,1,1.4,1.9,1.4h3
				c1.1,0,2-0.9,2-2v-2c0-0.7-0.4-1.4-1.1-1.8C17.7,20.1,17.3,20,17,20L17,20z"/>
		</g>
		<g>
			<path class="st1" d="M23,25c-0.6,0-1-0.4-1-1v-2c0-0.4,0.2-0.7,0.5-0.9C22.7,21,22.8,21,23,21c0.2,0,0.4,0.1,0.6,0.2l3,2
				c0.4,0.2,0.5,0.7,0.4,1.1c-0.1,0.4-0.5,0.7-1,0.7H23z"/>
			<path class="st1" d="M23,22l3,2h-3V22 M23,20c-0.3,0-0.6,0.1-0.9,0.2c-0.6,0.3-1.1,1-1.1,1.8v2c0,1.1,0.9,2,2,2h3
				c0.9,0,1.7-0.6,1.9-1.4c0.3-0.8-0.1-1.8-0.8-2.2l-3-2C23.8,20.1,23.4,20,23,20L23,20z"/>
		</g>
		<circle class="st13" cx="20" cy="20" r="18"/>
	</g>
</g>
<g id="レイヤー_3" class="st14">
</g>
<g id="レイヤー_2">
</g>
</svg>
