<?xml version="1.0" encoding="utf-8"?>
<!-- Generator: Adobe Illustrator 25.2.3, SVG Export Plug-In . SVG Version: 6.00 Build 0)  -->
<svg version="1.1" xmlns="http://www.w3.org/2000/svg" xmlns:xlink="http://www.w3.org/1999/xlink" x="0px" y="0px"
	 viewBox="0 0 40 40" style="enable-background:new 0 0 40 40;" xml:space="preserve" width="40" height="40">
<style type="text/css">
	.st0{fill:#E5F5F7;}
	.st1{fill:#FFFFFF;}
	.st2{fill:#009EAC;}
	.st3{fill:none;stroke:#CBCCCE;stroke-width:2;stroke-miterlimit:10;}
	.st4{fill:#CBCCCE;}
	.st5{fill:#EEEEEE;}
	.st6{fill:#51565B;}
	.st7{fill:#1EA0DC;}
	.st8{fill:#4DBBC5;}
	.st9{fill:none;stroke:#009EAC;stroke-width:2;stroke-miterlimit:10;}
	.st10{fill:none;stroke:#FFFFFF;stroke-width:3;stroke-miterlimit:10;}
	.st11{fill:none;stroke:#FFFFFF;stroke-width:2;stroke-miterlimit:10;}
	.st12{fill:#FF0000;}
	.st13{fill:none;}
	.st14{display:none;}
	.st15{display:inline;}
	.st16{fill:#FFFFFF;stroke:#000000;stroke-width:2;stroke-miterlimit:10;}
	.st17{fill:none;stroke:#000000;stroke-width:2;stroke-linejoin:round;stroke-miterlimit:10;}
	.st18{fill:none;stroke:#000000;stroke-width:2;stroke-miterlimit:10;}
	.st19{display:inline;fill:#6A0000;}
	.st20{display:inline;fill:#1EA0DC;}
	.st21{display:inline;fill:#008CD2;}
	.st22{fill-rule:evenodd;clip-rule:evenodd;}
	.st23{display:inline;fill:none;stroke:#000000;stroke-linejoin:round;stroke-miterlimit:10;}
	.st24{fill:none;stroke:#000000;stroke-width:3.7091;stroke-linecap:round;stroke-miterlimit:10;}
	.st25{fill:none;stroke:#000000;stroke-width:2.2255;stroke-linecap:round;stroke-linejoin:round;stroke-miterlimit:10;}
	.st26{fill:none;stroke:#000000;stroke-width:3.7091;stroke-linecap:round;stroke-linejoin:round;stroke-miterlimit:10;}
	.st27{clip-path:url(#SVGID_2_);fill:none;stroke:#000000;stroke-width:1.1127;stroke-miterlimit:10;}
	.st28{display:inline;opacity:0.6;}
	.st29{display:inline;fill:none;stroke:#000000;stroke-width:3.7091;stroke-linecap:round;stroke-miterlimit:10;}
	
		.st30{display:inline;fill:none;stroke:#000000;stroke-width:2.2255;stroke-linecap:round;stroke-linejoin:round;stroke-miterlimit:10;}
	
		.st31{display:inline;fill:none;stroke:#000000;stroke-width:3.7091;stroke-linecap:round;stroke-linejoin:round;stroke-miterlimit:10;}
	.st32{clip-path:url(#SVGID_4_);fill:none;stroke:#000000;stroke-width:1.1127;stroke-miterlimit:10;}
	.st33{display:inline;fill:none;stroke:#000000;stroke-width:2;stroke-linejoin:round;stroke-miterlimit:10;}
	.st34{display:inline;fill:none;stroke:#000000;stroke-width:2;stroke-miterlimit:10;}
	.st35{display:inline;fill:#FFFFFF;stroke:#000000;stroke-width:2;stroke-miterlimit:10;}
	.st36{display:inline;fill:none;stroke:#009EAC;stroke-width:2;stroke-miterlimit:10;}
	.st37{display:inline;fill:none;stroke:#000000;stroke-width:2;stroke-miterlimit:6;}
	.st38{display:inline;fill:#FFFFFF;}
	.st39{display:inline;fill:#009EAC;}
	.st40{fill:none;stroke:#009EAC;stroke-width:2;stroke-linejoin:round;stroke-miterlimit:10;}
	.st41{display:inline;fill:none;stroke:#FFFFFF;stroke-width:2;stroke-miterlimit:10;}
	.st42{display:inline;fill:none;stroke:#000000;stroke-width:2;stroke-linejoin:bevel;stroke-miterlimit:10;}
	.st43{display:inline;fill:#FFFFFF;stroke:#009EAC;stroke-width:2;stroke-miterlimit:10;}
	.st44{display:inline;fill:#009EAC;stroke:#009EAC;stroke-width:2;stroke-miterlimit:10;}
	.st45{display:inline;fill:none;stroke:#FFFFFF;stroke-width:2;stroke-linejoin:bevel;stroke-miterlimit:10;}
	.st46{fill:#E6E6E6;}
	.st47{fill:#7FCED5;}
	.st48{fill:#73787C;}
</style>
<g id="レイヤー_1">
	<g>
		<circle class="st1" cx="20" cy="20" r="7"/>
		<g>
			<path class="st1" d="M23,14h-6v-2c0-1.1,0.9-2,2-2h2c1.1,0,2,0.9,2,2V14z"/>
			<path class="st1" d="M17,26h6v2c0,1.1-0.9,2-2,2h-2c-1.1,0-2-0.9-2-2V26z"/>
		</g>
		<g>
			<path class="st1" d="M13.3,20.4l3,5.2l-1.7,1c-1,0.6-2.2,0.2-2.7-0.7l-1-1.7c-0.6-1-0.2-2.2,0.7-2.7L13.3,20.4z"/>
			<path class="st1" d="M26.7,19.6l-3-5.2l1.7-1c1-0.6,2.2-0.2,2.7,0.7l1,1.7c0.6,1,0.2,2.2-0.7,2.7L26.7,19.6z"/>
		</g>
		<g>
			<g>
				<path class="st1" d="M23.7,25.6l3-5.2l1.7,1c1,0.6,1.3,1.8,0.7,2.7l-1,1.7c-0.6,1-1.8,1.3-2.7,0.7L23.7,25.6z"/>
			</g>
			<path class="st1" d="M16.3,14.4l-3,5.2l-1.7-1c-1-0.6-1.3-1.8-0.7-2.7l1-1.7c0.6-1,1.8-1.3,2.7-0.7L16.3,14.4z"/>
		</g>
		<circle class="st2" cx="20" cy="20" r="4"/>
		<circle class="st13" cx="20" cy="20" r="18"/>
	</g>
</g>
<g id="レイヤー_3" class="st14">
</g>
<g id="レイヤー_2">
</g>
</svg>
