<?xml version="1.0" encoding="utf-8"?>
<!-- Generator: Adobe Illustrator 25.2.3, SVG Export Plug-In . SVG Version: 6.00 Build 0)  -->
<svg version="1.1" id="_x32_稿-調整" xmlns="http://www.w3.org/2000/svg" xmlns:xlink="http://www.w3.org/1999/xlink" x="0px"
	 y="0px" viewBox="0 0 26 26" style="enable-background:new 0 0 26 26;" xml:space="preserve" width="26" height="26">
<style type="text/css">
	.st0{fill:#51565B;}
	.st1{fill:#FFFFFF;}
</style>
<path class="st0" d="M13,15c1.7,0,3-1.3,3-3s-1.3-3-3-3s-3,1.3-3,3S11.3,15,13,15z M9,22h8v-2c0-2.2-1.8-4-4-4s-4,1.8-4,4V22z M20,4
	h-1v1h1c0.6,0,1,0.4,1,1v16c0,0.6-0.4,1-1,1H6c-0.6,0-1-0.4-1-1V6c0-0.6,0.4-1,1-1h1V4H6C4.9,4,4,4.9,4,6v16c0,1.1,0.9,2,2,2h14
	c1.1,0,2-0.9,2-2V6C22,4.9,21.1,4,20,4z M18,4c0-1.1-0.9-2-2-2h-6C8.9,2,8,2.9,8,4v3h10V4z M17,6H9V4c0-0.6,0.4-1,1-1h6
	c0.6,0,1,0.4,1,1V6z"/>
</svg>
