<?xml version="1.0" encoding="utf-8"?>
<!-- Generator: Adobe Illustrator 25.2.3, SVG Export Plug-In . SVG Version: 6.00 Build 0)  -->
<svg version="1.1" id="_x32_稿-調整" xmlns="http://www.w3.org/2000/svg" xmlns:xlink="http://www.w3.org/1999/xlink" x="0px"
	 y="0px" viewBox="0 0 26 26" style="enable-background:new 0 0 26 26;" xml:space="preserve" width="26" height="26">
<style type="text/css">
	.st0{fill:#51565B;}
	.st1{fill:#FFFFFF;}
</style>
<path class="st0" d="M5,22V9h4c1.1,0,2-0.9,2-2V2h-0.7L4,8.3V22c0,1.1,0.9,2,2,2h12v-1H6C5.4,23,5,22.6,5,22z M10,3.7V7
	c0,0.6-0.4,1-1,1H5.7L10,3.7z M20,2h-8v1h8c0.6,0,1,0.4,1,1v12h1V4C22,2.9,21.1,2,20,2z"/>
<path class="st0" d="M22.4,20.6L18.9,17c0.4-1.3,0-2.8-1-3.9c-1.2-1.2-2.9-1.5-4.4-0.9l2.3,2.3l-2.1,2.1l-2.3-2.3
	c-0.6,1.5-0.3,3.2,0.9,4.4c1,1,2.5,1.4,3.9,1l3.6,3.6c0.8,0.8,2.1,0.8,2.8,0C23.2,22.6,23.2,21.4,22.4,20.6z M20.3,22.7
	c-0.4-0.4-0.4-1,0-1.4c0.4-0.4,1-0.4,1.4,0c0.4,0.4,0.4,1,0,1.4C21.3,23.1,20.7,23.1,20.3,22.7z"/>
</svg>
