<?xml version="1.0" encoding="utf-8"?>
<!-- Generator: Adobe Illustrator 25.2.3, SVG Export Plug-In . SVG Version: 6.00 Build 0)  -->
<svg version="1.1" xmlns="http://www.w3.org/2000/svg" xmlns:xlink="http://www.w3.org/1999/xlink" x="0px" y="0px"
	 viewBox="0 0 26 26" style="enable-background:new 0 0 26 26;" xml:space="preserve" width="26" height="26">
<style type="text/css">
	.st0{display:none;}
	.st1{display:inline;fill:#FFFFFF;}
	.st2{display:inline;fill:none;stroke:#FFFFFF;stroke-miterlimit:10;}
	.st3{display:inline;fill:#1EA0DC;}
	.st4{display:inline;}
	.st5{fill:#FFFFFF;}
	.st6{fill:none;stroke:#FFFFFF;stroke-width:2;stroke-linejoin:round;stroke-miterlimit:10;}
	.st7{display:inline;fill:#51565B;}
	.st8{fill:#EEEEEE;}
	.st9{fill:#51565B;}
	.st10{fill:none;stroke:#51565B;stroke-miterlimit:10;}
	.st11{display:inline;fill:none;stroke:#51565B;stroke-miterlimit:10;}
	.st12{display:inline;fill:none;stroke:#51565B;stroke-linejoin:bevel;stroke-miterlimit:10;}
	.st13{display:inline;fill:#FFFFFF;stroke:#51565B;stroke-miterlimit:10;}
	.st14{display:inline;fill:#A8AAAD;}
	.st15{fill:none;stroke:#FFFFFF;stroke-miterlimit:10;}
	.st16{display:inline;fill:none;stroke:#51565B;stroke-linejoin:round;stroke-miterlimit:10;}
	.st17{fill:none;stroke:#51565B;stroke-linejoin:round;stroke-miterlimit:10;}
	.st18{display:inline;fill:#FFFFFF;stroke:#FFFFFF;stroke-miterlimit:10;}
	.st19{fill:none;stroke:#FFFFFF;stroke-linejoin:round;stroke-miterlimit:10;}
	.st20{display:inline;fill:#FFFFFF;stroke:#1EA0DC;stroke-miterlimit:10;}
	.st21{fill:#51565B;stroke:#51565B;stroke-miterlimit:10;}
	.st22{display:inline;fill:#1EA0DC;stroke:#1EA0DC;stroke-miterlimit:10;}
	.st23{display:inline;fill:none;stroke:#1EA0DC;stroke-miterlimit:10;}
	.st24{display:inline;fill:#EEEEEE;}
	.st25{display:inline;fill:#EEEEEE;stroke:#51565B;stroke-miterlimit:10;}
	.st26{fill:#1EA0DC;}
	.st27{display:inline;fill:none;stroke:#1EA0DC;stroke-linejoin:bevel;stroke-miterlimit:10;}
	.st28{fill:none;stroke:#1EA0DC;stroke-miterlimit:10;}
	.st29{fill:#A8AAAD;}
	.st30{fill:#FFFFFF;stroke:#FFFFFF;stroke-miterlimit:10;}
	.st31{fill:#FFFFFF;stroke:#000000;stroke-width:2;stroke-miterlimit:10;}
	.st32{fill:none;stroke:#000000;stroke-width:2;stroke-linejoin:round;stroke-miterlimit:10;}
	.st33{fill:none;stroke:#000000;stroke-width:2;stroke-miterlimit:10;}
	.st34{display:inline;fill:#6A0000;}
	.st35{display:inline;fill:#008CD2;}
	.st36{fill-rule:evenodd;clip-rule:evenodd;}
	.st37{display:inline;fill:none;stroke:#000000;stroke-linejoin:round;stroke-miterlimit:10;}
	.st38{fill:none;stroke:#000000;stroke-width:3.7091;stroke-linecap:round;stroke-miterlimit:10;}
	.st39{fill:none;stroke:#000000;stroke-width:2.2255;stroke-linecap:round;stroke-linejoin:round;stroke-miterlimit:10;}
	.st40{fill:none;stroke:#000000;stroke-width:3.7091;stroke-linecap:round;stroke-linejoin:round;stroke-miterlimit:10;}
	.st41{clip-path:url(#SVGID_2_);fill:none;stroke:#000000;stroke-width:1.1127;stroke-miterlimit:10;}
	.st42{display:inline;opacity:0.6;}
	.st43{display:inline;fill:none;stroke:#000000;stroke-width:3.7091;stroke-linecap:round;stroke-miterlimit:10;}
	
		.st44{display:inline;fill:none;stroke:#000000;stroke-width:2.2255;stroke-linecap:round;stroke-linejoin:round;stroke-miterlimit:10;}
	
		.st45{display:inline;fill:none;stroke:#000000;stroke-width:3.7091;stroke-linecap:round;stroke-linejoin:round;stroke-miterlimit:10;}
	.st46{clip-path:url(#SVGID_4_);fill:none;stroke:#000000;stroke-width:1.1127;stroke-miterlimit:10;}
	.st47{display:inline;fill:none;stroke:#000000;stroke-width:2;stroke-linejoin:round;stroke-miterlimit:10;}
	.st48{display:inline;fill:none;stroke:#000000;stroke-width:2;stroke-miterlimit:10;}
	.st49{display:inline;fill:#FFFFFF;stroke:#000000;stroke-width:2;stroke-miterlimit:10;}
	.st50{fill:none;stroke:#FFFFFF;stroke-width:2;stroke-miterlimit:10;}
	.st51{display:inline;fill:none;stroke:#FFFFFF;stroke-width:2;stroke-miterlimit:10;}
	.st52{display:inline;fill:none;stroke:#000000;stroke-width:2;stroke-miterlimit:6;}
	.st53{fill:none;stroke:#A8AAAD;stroke-linejoin:round;stroke-miterlimit:10;}
	.st54{display:inline;fill:none;stroke:#1EA0DC;stroke-width:2;stroke-miterlimit:10;}
	.st55{display:inline;fill:none;stroke:#A8AAAD;stroke-linecap:round;stroke-miterlimit:10;}
	.st56{display:inline;fill:none;stroke:#A8AAAD;stroke-linejoin:round;stroke-miterlimit:10;}
	.st57{display:inline;fill:none;stroke:#A8AAAD;stroke-miterlimit:10;}
	.st58{fill:none;stroke:#A8AAAD;stroke-width:2;stroke-miterlimit:10;}
	.st59{fill:none;stroke:#A8AAAD;stroke-width:2;stroke-linejoin:round;stroke-miterlimit:10;}
	.st60{display:inline;fill:none;stroke:#A8AAAD;stroke-width:2;stroke-miterlimit:10;}
	.st61{display:inline;fill:#FFFFFF;stroke:#FFFFFF;stroke-width:2;stroke-miterlimit:10;}
	.st62{display:inline;fill:none;stroke:#FF00FF;stroke-miterlimit:10;}
	.st63{fill:#FF00FF;}
	.st64{font-family:'HiraKakuStdN-W3-83pv-RKSJ-H';}
	.st65{font-size:5px;}
</style>
<g id="レイヤー_1" class="st0">
	<g class="st4">
		<rect x="19.1" y="18.1" transform="matrix(0.7071 -0.7071 0.7071 0.7071 -9.0468 20.4164)" class="st9" width="2" height="6"/>
	</g>
	<g class="st4">
		<path class="st9" d="M15,12c2.2,0,4,1.8,4,4s-1.8,4-4,4s-4-1.8-4-4S12.8,12,15,12 M15,11c-2.8,0-5,2.2-5,5s2.2,5,5,5s5-2.2,5-5
			S17.8,11,15,11L15,11z"/>
	</g>
	<path class="st7" d="M6,24v-1c-0.6,0-1-0.4-1-1H4C4,23.1,4.9,24,6,24z"/>
	<path class="st7" d="M20,2v1c0.6,0,1,0.4,1,1l1,0C22,2.9,21.1,2,20,2z"/>
	<rect x="4" y="9" class="st7" width="1" height="13"/>
	<rect x="21" y="4" class="st7" width="1" height="15"/>
	<rect x="11.5" y="17.5" transform="matrix(-1.836970e-16 1 -1 -1.836970e-16 35.5 11.5)" class="st7" width="1" height="12"/>
	
		<rect x="15.5" y="-1.5" transform="matrix(-1.836970e-16 1 -1 -1.836970e-16 18.4861 -13.5139)" class="st7" width="1" height="8"/>
	<path class="st7" d="M11,7l-1,0c0,0.6-0.4,1-1,1v1C10.1,9,11,8.1,11,7z"/>
	<rect x="6.5" y="6.5" transform="matrix(-1.836970e-16 1 -1 -1.836970e-16 15.5002 1.4998)" class="st7" width="1" height="4"/>
	<rect x="10" y="3" transform="matrix(-1 -1.224647e-16 1.224647e-16 -1 21 9.9861)" class="st7" width="1" height="4"/>
	<polyline class="st11" points="11,2.5 10.5,2.5 4.5,8.5 4.5,9 	"/>
</g>
<g id="レイヤー_1のコピー">
	<path class="st9" d="M19.2,18.8C19.7,18,20,17,20,16c0-2.8-2.2-5-5-5s-5,2.2-5,5s2.2,5,5,5c1,0,2-0.3,2.7-0.8l3.8,3.8l1.4-1.4
		L19.2,18.8z M15,20c-2.2,0-4-1.8-4-4c0-2.2,1.8-4,4-4s4,1.8,4,4C19,18.2,17.2,20,15,20z M5,22V9h4v0c1.1,0,2-0.9,2-2V2h-0.7L4,8.3
		V22c0,1.1,0.9,2,2,2h12v-1H6C5.4,23,5,22.6,5,22z M10,3.7V7c0,0.6-0.4,1-1,1H5.7L10,3.7z M20,3c0.6,0,1,0.4,1,1v15h1V4
		c0-1.1-0.9-2-2-2v0h-8v1L20,3L20,3z"/>
</g>
<g id="レイヤー_3" class="st0">
</g>
<g id="レイヤー_2">
	<text transform="matrix(1 0 0 1 2.9116 -1.4973)" class="st63 st64 st65">オーダー</text>
</g>
</svg>
