<?xml version="1.0" encoding="utf-8"?>
<!-- Generator: Adobe Illustrator 25.2.3, SVG Export Plug-In . SVG Version: 6.00 Build 0)  -->
<svg version="1.1" id="_x32_稿-調整" xmlns="http://www.w3.org/2000/svg" xmlns:xlink="http://www.w3.org/1999/xlink" x="0px"
	 y="0px" viewBox="0 0 26 26" style="enable-background:new 0 0 26 26;" xml:space="preserve" width="26" height="26">
<style type="text/css">
	.st0{fill:#51565B;}
	.st1{fill:#FFFFFF;}
</style>
<path class="st0" d="M7.4,7.9L5.1,5.7L4.4,6.4l3,3L12,4.7L11.3,4L7.4,7.9z M10,14H5c-1.1,0-2,0.9-2,2v5c0,1.1,0.9,2,2,2h5
	c1.1,0,2-0.9,2-2v-5C12,14.9,11.1,14,10,14z M11,21c0,0.6-0.4,1-1,1H5c-0.6,0-1-0.4-1-1v-5c0-0.6,0.4-1,1-1h5c0.6,0,1,0.4,1,1V21z
	 M14,22h9v-1h-9V22z M14,19h9v-1h-9V19z M14,16h9v-1h-9V16z M11,10c0,0.6-0.4,1-1,1H5c-0.6,0-1-0.4-1-1V5c0-0.6,0.4-1,1-1h5V3H5
	C3.9,3,3,3.9,3,5v5c0,1.1,0.9,2,2,2h5c1.1,0,2-0.9,2-2V7h-1V10z M14,11h9v-1h-9V11z M14,8h9V7h-9V8z M14,4v1h9V4H14z"/>
</svg>
