<?xml version="1.0" encoding="utf-8"?>
<!-- Generator: Adobe Illustrator 27.0.1, SVG Export Plug-In . SVG Version: 6.00 Build 0)  -->
<svg version="1.1" xmlns="http://www.w3.org/2000/svg" xmlns:xlink="http://www.w3.org/1999/xlink" x="0px" y="0px"
	 viewBox="0 0 26 26" style="enable-background:new 0 0 26 26;" xml:space="preserve">
<style type="text/css">
	.st0{display:none;}
	.st1{display:inline;fill:#FFFFFF;}
	.st2{display:inline;fill:none;stroke:#FFFFFF;stroke-miterlimit:10;}
	.st3{display:inline;fill:#1EA0DC;}
	.st4{display:inline;fill:#FF00FF;}
	.st5{font-family:'HiraKakuStdN-W3-83pv-RKSJ-H';}
	.st6{font-size:5px;}
	.st7{display:inline;}
	.st8{fill:#FFFFFF;}
	.st9{fill:none;stroke:#FFFFFF;stroke-width:2;stroke-linejoin:round;stroke-miterlimit:10;}
	.st10{display:inline;fill:#51565B;}
	.st11{fill:#EEEEEE;}
	.st12{fill:#51565B;}
	.st13{fill:none;stroke:#51565B;stroke-miterlimit:10;}
	.st14{display:inline;fill:none;stroke:#51565B;stroke-miterlimit:10;}
	.st15{display:inline;fill:none;stroke:#51565B;stroke-linejoin:bevel;stroke-miterlimit:10;}
	.st16{display:inline;fill:#FFFFFF;stroke:#51565B;stroke-miterlimit:10;}
	.st17{display:inline;fill:#A8AAAD;}
	.st18{fill:none;stroke:#FFFFFF;stroke-miterlimit:10;}
	.st19{display:inline;fill:none;stroke:#51565B;stroke-linejoin:round;stroke-miterlimit:10;}
	.st20{fill:none;stroke:#51565B;stroke-linejoin:round;stroke-miterlimit:10;}
	.st21{display:inline;fill:#FFFFFF;stroke:#FFFFFF;stroke-miterlimit:10;}
	.st22{fill:none;stroke:#FFFFFF;stroke-linejoin:round;stroke-miterlimit:10;}
	.st23{display:inline;fill:#FFFFFF;stroke:#1EA0DC;stroke-miterlimit:10;}
	.st24{fill:#51565B;stroke:#51565B;stroke-miterlimit:10;}
	.st25{display:inline;fill:#1EA0DC;stroke:#1EA0DC;stroke-miterlimit:10;}
	.st26{display:inline;fill:none;stroke:#1EA0DC;stroke-miterlimit:10;}
	.st27{display:inline;fill:#EEEEEE;}
	.st28{display:inline;fill:#EEEEEE;stroke:#51565B;stroke-miterlimit:10;}
	.st29{fill:#1EA0DC;}
	.st30{display:inline;fill:none;stroke:#1EA0DC;stroke-linejoin:bevel;stroke-miterlimit:10;}
	.st31{fill:none;stroke:#1EA0DC;stroke-miterlimit:10;}
	.st32{display:inline;fill:none;}
	.st33{clip-path:url(#SVGID_00000129914331898765639930000014692806320070874015_);}
	.st34{fill:none;stroke:#4B4B4B;stroke-width:3;stroke-linecap:round;stroke-linejoin:round;stroke-miterlimit:10;}
	.st35{display:inline;fill:#4B4B4B;}
	.st36{display:inline;fill:none;stroke:#4B4B4B;stroke-width:5;stroke-miterlimit:10;}
	.st37{display:inline;fill:none;stroke:#4B4B4B;stroke-width:3;stroke-miterlimit:10;}
	.st38{fill:none;stroke:#4B4B4B;stroke-width:3;stroke-linejoin:round;stroke-miterlimit:10;}
	.st39{fill:#A8AAAD;}
	.st40{display:inline;fill:#51565B;stroke:#51565B;stroke-miterlimit:10;}
	.st41{fill:#FFFFFF;stroke:#000000;stroke-width:2;stroke-miterlimit:10;}
	.st42{fill:none;stroke:#000000;stroke-width:2;stroke-linejoin:round;stroke-miterlimit:10;}
	.st43{fill:none;stroke:#000000;stroke-width:2;stroke-miterlimit:10;}
	.st44{display:inline;fill:#6A0000;}
	.st45{display:inline;fill:#008CD2;}
	.st46{fill-rule:evenodd;clip-rule:evenodd;}
	.st47{display:inline;fill:none;stroke:#000000;stroke-linejoin:round;stroke-miterlimit:10;}
	.st48{fill:none;stroke:#000000;stroke-width:3.7091;stroke-linecap:round;stroke-miterlimit:10;}
	.st49{fill:none;stroke:#000000;stroke-width:2.2255;stroke-linecap:round;stroke-linejoin:round;stroke-miterlimit:10;}
	.st50{fill:none;stroke:#000000;stroke-width:3.7091;stroke-linecap:round;stroke-linejoin:round;stroke-miterlimit:10;}
	
		.st51{clip-path:url(#SVGID_00000169558518788958621400000016047908339417335221_);fill:none;stroke:#000000;stroke-width:1.1127;stroke-miterlimit:10;}
	.st52{display:inline;opacity:0.6;}
	.st53{display:inline;fill:none;stroke:#000000;stroke-width:3.7091;stroke-linecap:round;stroke-miterlimit:10;}
	
		.st54{display:inline;fill:none;stroke:#000000;stroke-width:2.2255;stroke-linecap:round;stroke-linejoin:round;stroke-miterlimit:10;}
	
		.st55{display:inline;fill:none;stroke:#000000;stroke-width:3.7091;stroke-linecap:round;stroke-linejoin:round;stroke-miterlimit:10;}
	
		.st56{clip-path:url(#SVGID_00000091702120364242042860000013797336865661929910_);fill:none;stroke:#000000;stroke-width:1.1127;stroke-miterlimit:10;}
	.st57{display:inline;fill:none;stroke:#000000;stroke-width:2;stroke-linejoin:round;stroke-miterlimit:10;}
	.st58{display:inline;fill:none;stroke:#000000;stroke-width:2;stroke-miterlimit:10;}
	.st59{display:inline;fill:#FFFFFF;stroke:#000000;stroke-width:2;stroke-miterlimit:10;}
	.st60{fill:none;stroke:#FFFFFF;stroke-width:2;stroke-miterlimit:10;}
	.st61{display:inline;fill:none;stroke:#FFFFFF;stroke-width:2;stroke-miterlimit:10;}
	.st62{display:inline;fill:none;stroke:#000000;stroke-width:2;stroke-miterlimit:6;}
	.st63{fill:none;stroke:#A8AAAD;stroke-linejoin:round;stroke-miterlimit:10;}
	.st64{display:inline;fill:none;stroke:#1EA0DC;stroke-width:2;stroke-miterlimit:10;}
	.st65{display:inline;fill:none;stroke:#A8AAAD;stroke-linecap:round;stroke-miterlimit:10;}
	.st66{display:inline;fill:none;stroke:#A8AAAD;stroke-linejoin:round;stroke-miterlimit:10;}
	.st67{display:inline;fill:none;stroke:#A8AAAD;stroke-miterlimit:10;}
	.st68{fill:none;stroke:#A8AAAD;stroke-width:2;stroke-miterlimit:10;}
	.st69{fill:none;stroke:#A8AAAD;stroke-width:2;stroke-linejoin:round;stroke-miterlimit:10;}
	.st70{display:inline;fill:none;stroke:#A8AAAD;stroke-width:2;stroke-miterlimit:10;}
	.st71{display:inline;fill:#FFFFFF;stroke:#FFFFFF;stroke-width:2;stroke-miterlimit:10;}
	.st72{display:inline;fill:none;stroke:#FF00FF;stroke-miterlimit:10;}
	.st73{fill:none;stroke:#FF00FF;stroke-miterlimit:10;}
</style>
<g id="初稿" class="st0">
	<path class="st1" d="M6,24v-1c-0.6,0-1-0.4-1-1H4C4,23.1,4.9,24,6,24z"/>
	<path class="st1" d="M22,22h-1c0,0.6-0.4,1-1,1v1C21.1,24,22,23.1,22,22z"/>
	<path class="st1" d="M20,2v1c0.6,0,1,0.4,1,1l1,0C22,2.9,21.1,2,20,2z"/>
	<rect x="4" y="9" class="st1" width="1" height="13"/>
	<rect x="21" y="4" class="st1" width="1" height="18"/>
	<rect x="12.5" y="16.5" transform="matrix(-1.836970e-16 1 -1 -1.836970e-16 36.5 10.5)" class="st1" width="1" height="14"/>
	<rect x="15" y="-2" transform="matrix(-1.836970e-16 1 -1 -1.836970e-16 17.9861 -13.0139)" class="st1" width="1" height="9"/>
	<polyline class="st2" points="11,2.5 10.5,2.5 4.5,8.5 4.5,9 	"/>
	<polygon class="st1" points="10.5,2.5 21.2,2.8 21.2,23 4.6,23.2 4.5,8.5 	"/>
	<path class="st3" d="M11,7l-1,0c0,0.6-0.4,1-1,1v1C10.1,9,11,8.1,11,7z"/>
	<rect x="6" y="6" transform="matrix(-1.836970e-16 1 -1 -1.836970e-16 15.0002 1.9998)" class="st3" width="1" height="5"/>
	<rect x="10" y="2" transform="matrix(-1 -1.224647e-16 1.224647e-16 -1 21 9)" class="st3" width="1" height="5"/>
	<text transform="matrix(1 0 0 1 9.1249 -1.4973)" class="st4 st5 st6">入外</text>
	<g class="st7">
		<path class="st29" d="M16,6c1.1,0,2,0.9,2,2s-0.9,2-2,2s-2-0.9-2-2S14.9,6,16,6 M16,5c-1.7,0-3,1.3-3,3s1.3,3,3,3s3-1.3,3-3
			S17.7,5,16,5L16,5z"/>
	</g>
	<polyline class="st30" points="14,16 16,11 18,16 	"/>
	<line class="st30" x1="8" y1="11.5" x2="12" y2="11.5"/>
	<line class="st30" x1="8" y1="15.5" x2="12" y2="15.5"/>
	<line class="st30" x1="8" y1="19.5" x2="18" y2="19.5"/>
</g>
<g id="初稿-サブ" class="st0">
</g>
<g id="初稿-調整" class="st0">
	<g class="st7">
		<circle class="st8" cx="16" cy="8" r="2"/>
		<path class="st8" d="M10,7V2.3L4.3,8H9C9.6,8,10,7.6,10,7z"/>
		<path class="st8" d="M20,2L20,2l-9,0v0v5c0,1.1-0.9,2-2,2v0H4v13c0,1.1,0.9,2,2,2h14c1.1,0,2-0.9,2-2V4C22,2.9,21.1,2,20,2z M8,11
			h4v1H8V11z M8,15h4v1H8V15z M18,20H8v-1h10V20z M18.5,15.8l-0.9,0.4L16,12.3l-1.5,3.8l-0.9-0.4l1.9-4.9C14.1,10.7,13,9.5,13,8
			c0-1.7,1.3-3,3-3s3,1.3,3,3c0,1.5-1.1,2.7-2.5,2.9L18.5,15.8z"/>
	</g>
</g>
<g id="_x32_稿" class="st0">
	<rect x="5" y="5" class="st1" width="16" height="16"/>
	<path class="st1" d="M6,22v-1c-0.6,0-1-0.4-1-1H4C4,21.1,4.9,22,6,22z"/>
	<path class="st1" d="M22,20h-1c0,0.6-0.4,1-1,1v1C21.1,22,22,21.1,22,20z"/>
	<rect x="4" y="6" class="st1" width="1" height="14"/>
	<rect x="21" y="6" class="st1" width="1" height="14"/>
	<rect x="12.5" y="14.5" transform="matrix(-1.836970e-16 1 -1 -1.836970e-16 34.5 8.5)" class="st1" width="1" height="14"/>
	<path class="st1" d="M6,4v1C5.4,5,5,5.4,5,6H4C4,4.9,4.9,4,6,4z"/>
	<path class="st1" d="M22,6h-1c0-0.6-0.4-1-1-1V4C21.1,4,22,4.9,22,6z"/>
	<rect x="12.5" y="-2.5" transform="matrix(-6.366465e-10 1 -1 -6.366465e-10 17.5 -8.5)" class="st1" width="1" height="14"/>
	<g class="st7">
		<polygon class="st39" points="12,17 7,12 8,11 12,15 22,5 23,6 		"/>
	</g>
</g>
<g id="_x32_稿-サブ" class="st0">
</g>
<g id="_x32_稿-調整">
	<path class="st8" d="M12,17l-5-5l1-1l4,4l9.8-9.8C21.5,4.5,20.8,4,20,4H6C4.9,4,4,4.9,4,6v14c0,1.1,0.9,2,2,2h14c1.1,0,2-0.9,2-2V7
		L12,17z"/>
</g>
<g id="_x32_稿-ゴミ" class="st0">
</g>
<g id="パーツ残骸" class="st0">
</g>
<g id="レイヤー_8" class="st0">
</g>
</svg>
