<svg id="waroku_hk" xmlns="http://www.w3.org/2000/svg" width="260" height="108.3" viewBox="0 0 260 108.3">
  <path id="パス_180" data-name="パス 180" d="M104.3,22A18.841,18.841,0,0,0,98,16.3a16.581,16.581,0,0,0-8-1.9,17.6,17.6,0,0,0-13.1,5.5,18.436,18.436,0,0,0-5.5,13.3,18.638,18.638,0,0,0,5.4,13.5,17.6,17.6,0,0,0,13.1,5.5,17.315,17.315,0,0,0,7.9-1.8,20.27,20.27,0,0,0,6.5-5.3v6.2h4.6v-36h-4.6Zm-1.5,18.9a13.669,13.669,0,0,1-5.2,5.2A14.374,14.374,0,0,1,90.4,48a13.754,13.754,0,0,1-7.1-1.9,14.21,14.21,0,0,1-5.2-5.4A14.64,14.64,0,0,1,78,26.1a13.269,13.269,0,0,1,5.2-5.3,14.791,14.791,0,0,1,7.1-1.9,13.508,13.508,0,0,1,10.1,4.2,14.5,14.5,0,0,1,4.1,10.4A13.965,13.965,0,0,1,102.8,40.9ZM127.1,16a16.474,16.474,0,0,0-4.5,4.6V15.3h-4.7v36h4.7V39.2c0-6.2.3-10.4.9-12.4a11.9,11.9,0,0,1,3.3-5.9,6.461,6.461,0,0,1,4.5-1.9,6.026,6.026,0,0,1,2.4.6l2.4-3.9a8.638,8.638,0,0,0-4.1-1.2A8.291,8.291,0,0,0,127.1,16Zm95.8-.6h-6.8L199.4,29.9V1.5h-4.6V51.4h4.6V35.2l18.1,16.2H224L203.1,32.6Zm32.4,0V32.2c0,4.5-.2,7.4-.7,8.8a9.5,9.5,0,0,1-3.7,4.9,11.672,11.672,0,0,1-6.6,1.9,11.472,11.472,0,0,1-6.7-1.9,9.5,9.5,0,0,1-3.8-5.2,37.738,37.738,0,0,1-.7-8.5V15.4h-4.6V32.7c0,5.1.6,8.9,1.7,11.5a13.975,13.975,0,0,0,5.3,6,16.863,16.863,0,0,0,8.8,2.1,17.113,17.113,0,0,0,8.8-2.1,12.972,12.972,0,0,0,5.2-5.9c1.2-2.5,1.7-6.3,1.7-11.2V15.4ZM35.1,0,17.4,44.3,5,0H0L16.3,57.9h.9l18.5-46L36.1,0ZM66.5,0,53.6,44.3,36.2,0l-.5,11.8,18.1,46h.9L71.4,0Zm95.6,9.8a24.1,24.1,0,1,0,24.1,24.1A24.113,24.113,0,0,0,162.1,9.8Zm0,19.2a4.8,4.8,0,1,0,0,9.6v4.8a9.6,9.6,0,1,1,0-19.2Zm0-9.6a14.4,14.4,0,0,0,0,28.8V53a19.3,19.3,0,1,1,0-38.6Z" fill="#009eac"/>
  <rect id="長方形_1134" data-name="長方形 1134" width="259.4" height="40.9" transform="translate(0.3 67.4)" fill="#1ea0dc"/>
  <g id="グループ_2045" data-name="グループ 2045">
    <g id="グループ_2044" data-name="グループ 2044">
      <g id="グループ_2036" data-name="グループ 2036">
        <path id="パス_181" data-name="パス 181" d="M26.5,85.6a4.116,4.116,0,0,1-.3.8,28.632,28.632,0,0,1-5.3,11.4,8.74,8.74,0,0,0-2.4-1.5,19.483,19.483,0,0,0,4.3-7.5,15.457,15.457,0,0,0,1-4Zm3.9-7.5a12.836,12.836,0,0,0-.2-3.1h2.9a25.456,25.456,0,0,0-.1,3.1V80h7.2a32.624,32.624,0,0,0,3.7-.2v2.7c-1.2-.1-1.9-.1-3.6-.1H33V97a30.3,30.3,0,0,0,.1,3.4H30.2a25.565,25.565,0,0,0,.2-3.4V82.3H23.3c-1.7,0-2.5,0-3.6.1V79.7a30.626,30.626,0,0,0,3.6.2h7V78.1Zm8.9,6.8a25.107,25.107,0,0,0,1.1,3.4,25.386,25.386,0,0,0,4.5,8,11.865,11.865,0,0,0-2.3,1.6A35.481,35.481,0,0,1,38,89a18.939,18.939,0,0,0-.6-1.8,4.076,4.076,0,0,0-.2-.7,9.44,9.44,0,0,0-.3-.9Z" fill="#fff"/>
      </g>
      <g id="グループ_2037" data-name="グループ 2037">
        <path id="パス_182" data-name="パス 182" d="M72.3,99.5a58.4,58.4,0,0,0-9.4-9.1,30.53,30.53,0,0,1-5.7,5.2,38.877,38.877,0,0,1-5.8,3.5,8.068,8.068,0,0,0-1.7-2.4A28.488,28.488,0,0,0,59.6,90a30.265,30.265,0,0,0,6.6-9.8l.2-.4c0-.1.1-.1.1-.2-.4,0-.4,0-10.1.2A28.167,28.167,0,0,0,53,80l-.1-2.8a20.282,20.282,0,0,0,2.8.2h.7l10.3-.1a5.148,5.148,0,0,0,2.1-.3l1.5,1.5a6.558,6.558,0,0,0-.9,1.5,41.114,41.114,0,0,1-4.8,8.3,67.865,67.865,0,0,1,9.9,8.8Z" fill="#fff"/>
      </g>
      <g id="グループ_2038" data-name="グループ 2038">
        <path id="パス_183" data-name="パス 183" d="M83.8,85.5a40.129,40.129,0,0,0,9.3-3,17.2,17.2,0,0,0,4.6-2.7l1.8,2.4a6.872,6.872,0,0,0-1.3.6,54.373,54.373,0,0,1-8.6,3.7,45.127,45.127,0,0,1-5.8,1.4v4.7c0,2,.1,2.7.6,3.1.6.6,2.4.9,5.6.9a57.465,57.465,0,0,0,6.9-.5,26.527,26.527,0,0,0,3-.6l.2,2.8a8.466,8.466,0,0,0-1.3.1,79.114,79.114,0,0,1-9.4.6c-3.7,0-5.7-.4-6.8-1.3a4.382,4.382,0,0,1-1.3-2.9,13.576,13.576,0,0,1-.1-2.4V79.1a22.741,22.741,0,0,0-.1-2.9h3a22.335,22.335,0,0,0-.2,3v6.3Zm20-8.4a3.1,3.1,0,1,1-3.1-3.1A3.116,3.116,0,0,1,103.8,77.1Zm-4.9,0a1.8,1.8,0,1,0,1.8-1.8A1.793,1.793,0,0,0,98.9,77.1Z" fill="#fff"/>
      </g>
      <g id="グループ_2039" data-name="グループ 2039">
        <path id="パス_184" data-name="パス 184" d="M117.5,75a20.8,20.8,0,0,0-1,1.9,7.579,7.579,0,0,1-.9,1.6c.4-.1.4-.1,8.8-.2a5.618,5.618,0,0,0,2-.3l1.5,1.5a7.8,7.8,0,0,0-.9,2,44.738,44.738,0,0,1-4,8.2c-3,4.7-7,8-13.3,10.9a5.633,5.633,0,0,0-1.8-2.2,27.057,27.057,0,0,0,6.1-3.2,19.012,19.012,0,0,0,5.1-4.6,35.645,35.645,0,0,0-6.5-4.7l1.6-1.8a42.973,42.973,0,0,1,6.4,4.4,35.7,35.7,0,0,0,3.9-8.1l-10.1.1a29.653,29.653,0,0,1-7.1,7.9,7.128,7.128,0,0,0-2.1-1.7,26.8,26.8,0,0,0,7.6-8.5,21.365,21.365,0,0,0,1.8-4.1Z" fill="#fff"/>
      </g>
      <g id="グループ_2040" data-name="グループ 2040">
        <path id="パス_185" data-name="パス 185" d="M139.5,76.2a24.209,24.209,0,0,0-.2,2.6c-.2,8.3-.5,10.4-1.6,13.4a19.3,19.3,0,0,1-5.1,7.5,7.957,7.957,0,0,0-2.1-2,14.4,14.4,0,0,0,4.9-6.8c.9-2.6,1.3-6.4,1.3-12.5a14.227,14.227,0,0,0-.1-2.4Zm7.5-.3a19.479,19.479,0,0,0-.2,3.1l-.1,17.3a12.557,12.557,0,0,0,5.2-3.5,14.154,14.154,0,0,0,3.4-5.8,7.957,7.957,0,0,0,2,2.1,17.4,17.4,0,0,1-6.1,7.8A16.5,16.5,0,0,1,147,99a3,3,0,0,0-1,.4,4.875,4.875,0,0,0-.7.3l-1.4-1.5a6.9,6.9,0,0,0,.2-2.4l.2-16.9v-.7a14.892,14.892,0,0,0-.1-2.4Z" fill="#fff"/>
      </g>
      <g id="グループ_2041" data-name="グループ 2041">
        <path id="パス_186" data-name="パス 186" d="M168.9,80.8c.1-1.5.2-3.1.2-4.3a8.082,8.082,0,0,0-.1-1.6l2.9.1c-.1.6-.1.8-.3,3.8,0,.7-.1,1.1-.1,2.1h7.2a5.319,5.319,0,0,0,2.1-.2l1.3,1.1a4.19,4.19,0,0,0-.2,1.8,81.46,81.46,0,0,1-.8,10.3c-.7,4.4-1.7,5.5-4.6,5.5a19.476,19.476,0,0,1-3.7-.4,7.664,7.664,0,0,0-.4-2.7,13.967,13.967,0,0,0,3.9.7c1.4,0,1.9-.7,2.4-3.5a67.149,67.149,0,0,0,.7-10.3h-8c-.4,3.9-1,6.2-2.4,8.7a20.86,20.86,0,0,1-7.9,8,7.616,7.616,0,0,0-1.8-2.1,16.878,16.878,0,0,0,7.7-7.7,18.549,18.549,0,0,0,1.8-6.8h-5.3a27.325,27.325,0,0,0-3.2.1l-.1-2.7a15.177,15.177,0,0,0,3.2.2Z" fill="#fff"/>
      </g>
      <g id="グループ_2042" data-name="グループ 2042">
        <path id="パス_187" data-name="パス 187" d="M195.7,76.2a24.209,24.209,0,0,0-.2,2.6c-.2,8.3-.5,10.4-1.6,13.4a19.3,19.3,0,0,1-5.1,7.5,7.957,7.957,0,0,0-2.1-2,14.4,14.4,0,0,0,4.9-6.8c.9-2.6,1.3-6.4,1.3-12.5a14.227,14.227,0,0,0-.1-2.4Zm7.6-.3a19.479,19.479,0,0,0-.2,3.1L203,96.3a12.557,12.557,0,0,0,5.2-3.5,14.154,14.154,0,0,0,3.4-5.8,7.957,7.957,0,0,0,2,2.1,17.4,17.4,0,0,1-6.1,7.8,16.5,16.5,0,0,1-4.2,2.1,3,3,0,0,0-1,.4,4.875,4.875,0,0,0-.7.3l-1.4-1.5a6.9,6.9,0,0,0,.2-2.4l.2-16.9v-.7a14.892,14.892,0,0,0-.1-2.4Z" fill="#fff"/>
      </g>
      <g id="グループ_2043" data-name="グループ 2043">
        <path id="パス_188" data-name="パス 188" d="M231.3,86.3a14.832,14.832,0,0,1-.4,3.4c-.6,3.3-1.8,5.7-4,7.5a18.762,18.762,0,0,1-5.2,3,5.547,5.547,0,0,0-1.7-2.3c3.8-1.2,6.2-3,7.4-5.6a15.881,15.881,0,0,0,1.2-6h-7.7a34.437,34.437,0,0,0-3.6.1V83.7a34.135,34.135,0,0,0,3.7.2h17a31.2,31.2,0,0,0,3.7-.2v2.7c-1-.1-2.1-.1-3.7-.1Zm-11.1-9.9a17.371,17.371,0,0,0,3.7.2h11.3a17.371,17.371,0,0,0,3.7-.2v2.7a36.607,36.607,0,0,0-3.7-.1H223.9a33.419,33.419,0,0,0-3.6.1V76.4Z" fill="#fff"/>
      </g>
    </g>
  </g>
</svg>
