<?xml version="1.0" encoding="utf-8"?>
<!-- Generator: Adobe Illustrator 25.0.1, SVG Export Plug-In . SVG Version: 6.00 Build 0)  -->
<svg version="1.1" id="レイヤー_1" xmlns="http://www.w3.org/2000/svg" xmlns:xlink="http://www.w3.org/1999/xlink" x="0px"
	 y="0px" viewBox="0 0 138 54" style="enable-background:new 0 0 138 54;" xml:space="preserve" width="138" height="54">
<style type="text/css">
	.st0{fill:#ffffff;}
</style>
<g>
	<g>
		<path class="st0" d="M60.26,21.37v14.92h-1.89v-2.56c-0.8,0.98-1.71,1.71-2.71,2.21c-1,0.49-2.1,0.74-3.28,0.74
			c-2.11,0-3.92-0.77-5.41-2.3c-1.49-1.53-2.24-3.39-2.24-5.59c0-2.15,0.75-3.99,2.26-5.51c1.51-1.53,3.32-2.29,5.44-2.29
			c1.23,0,2.33,0.26,3.33,0.78c0.99,0.52,1.86,1.3,2.61,2.35v-2.75H60.26z M52.58,22.84c-1.07,0-2.05,0.26-2.96,0.79
			c-0.9,0.53-1.62,1.26-2.16,2.21c-0.53,0.95-0.8,1.95-0.8,3.01c0,1.05,0.27,2.05,0.81,3.01s1.26,1.71,2.17,2.24
			c0.91,0.53,1.88,0.8,2.92,0.8c1.05,0,2.05-0.26,2.99-0.79c0.94-0.53,1.66-1.25,2.17-2.15c0.51-0.9,0.76-1.92,0.76-3.05
			c0-1.73-0.57-3.17-1.71-4.33C55.65,23.42,54.24,22.84,52.58,22.84z"/>
	</g>
	<g>
		<path class="st0" d="M63.99,21.37h1.96v2.18c0.58-0.86,1.2-1.5,1.85-1.93c0.65-0.42,1.33-0.64,2.03-0.64c0.53,0,1.1,0.17,1.7,0.51
			l-1,1.62c-0.4-0.17-0.74-0.26-1.01-0.26c-0.64,0-1.26,0.26-1.85,0.79c-0.59,0.53-1.05,1.34-1.36,2.45
			c-0.24,0.85-0.36,2.57-0.36,5.16v5.05h-1.96V21.37z"/>
	</g>
	<g>
		<path class="st0" d="M95.87,15.61h1.92v11.78l6.92-6.02h2.82l-8.2,7.12l8.68,7.8h-2.7l-7.52-6.72v6.72h-1.92
			C95.87,36.29,95.87,15.61,95.87,15.61z"/>
	</g>
	<g>
		<path class="st0" d="M109.84,21.37h1.92v6.97c0,1.7,0.09,2.87,0.27,3.51c0.27,0.91,0.8,1.64,1.57,2.17c0.77,0.53,1.7,0.8,2.77,0.8
			c1.07,0,1.98-0.26,2.73-0.77c0.75-0.52,1.26-1.2,1.55-2.04c0.19-0.58,0.29-1.8,0.29-3.66v-6.98h1.96v7.32
			c0,2.06-0.24,3.61-0.72,4.65c-0.48,1.04-1.2,1.86-2.17,2.45c-0.96,0.59-2.17,0.88-3.63,0.88c-1.45,0-2.67-0.29-3.64-0.88
			c-0.97-0.59-1.7-1.41-2.18-2.47c-0.48-1.06-0.72-2.64-0.72-4.77V21.37z"/>
	</g>
	<g>
		<g>
			<polygon class="st0" points="29.67,15 22.33,33.36 17.17,15 15.1,15 21.86,39 22.24,39 29.9,19.91 30.09,15 			"/>
		</g>
		<g>
			<polygon class="st0" points="42.65,15 37.32,33.36 30.09,15 29.9,19.91 37.4,39 37.78,39 44.72,15 			"/>
		</g>
	</g>
	<g>
		<g>
			<g>
				<g>
					<path class="st0" d="M82.3,19.05c-5.51,0-9.98,4.47-9.98,9.98s4.47,9.98,9.98,9.98s9.98-4.47,9.98-9.98
						C92.29,23.51,87.82,19.05,82.3,19.05z M82.3,37.01c-4.41,0-7.98-3.57-7.98-7.98s3.57-7.98,7.98-7.98
						c4.41,0,7.98,3.57,7.98,7.98C90.29,33.43,86.71,37.01,82.3,37.01z"/>
				</g>
				<g>
					<path class="st0" d="M84.3,29.02c0,1.1-0.89,2-2,2c-1.1,0-2-0.89-2-2c0-1.1,0.89-2,2-2C83.4,27.03,84.3,27.92,84.3,29.02z"/>
				</g>
				<g>
					<path class="st0" d="M82.3,23.04c-3.31,0-5.99,2.68-5.99,5.99c0,3.31,2.68,5.99,5.99,5.99s5.99-2.68,5.99-5.99
						S85.62,23.04,82.3,23.04z M82.3,33.01c-2.2,0-3.99-1.79-3.99-3.99s1.79-3.99,3.99-3.99s3.99,1.79,3.99,3.99
						C86.29,31.23,84.51,33.01,82.3,33.01z"/>
				</g>
			</g>
			<g>
				<path class="st0" d="M82.3,39c5.51,0,9.98-4.47,9.98-9.98s-4.47-9.98-9.98-9.98V39z"/>
			</g>
		</g>
	</g>
</g>
</svg>
