<?xml version="1.0" encoding="utf-8"?>
<!-- Generator: Adobe Illustrator 25.2.3, SVG Export Plug-In . SVG Version: 6.00 Build 0)  -->
<svg version="1.1" id="_x32_稿-調整" xmlns="http://www.w3.org/2000/svg" xmlns:xlink="http://www.w3.org/1999/xlink" x="0px"
	 y="0px" viewBox="0 0 26 26" style="enable-background:new 0 0 26 26;" xml:space="preserve" width="26" height="26">
<style type="text/css">
	.st0{fill:#51565B;}
	.st1{fill:#FFFFFF;}
</style>
<g>
	<circle class="st1" cx="9" cy="7" r="5"/>
	<path class="st1" d="M23.1,16.1l-0.7-0.7l-4.1,4.1C18,19.2,17.5,19,17,19h-2v-2c0-2.2-1.8-4-4-4H7c-2.2,0-4,1.8-4,4v7h10
		c-1.7,0-3-1.3-3-3v-3h1v3c0,1.1,0.9,2,2,2h4c1.1,0,2-0.9,2-2c0-0.2,0-0.4-0.1-0.6L23.1,16.1z"/>
</g>
</svg>
