<?xml version="1.0" encoding="utf-8"?>
<!-- Generator: Adobe Illustrator 25.2.3, SVG Export Plug-In . SVG Version: 6.00 Build 0)  -->
<svg version="1.1" id="_x32_稿-調整" xmlns="http://www.w3.org/2000/svg" xmlns:xlink="http://www.w3.org/1999/xlink" x="0px"
	 y="0px" viewBox="0 0 26 26" style="enable-background:new 0 0 26 26;" xml:space="preserve" width="26" height="26">
<style type="text/css">
	.st0{fill:#51565B;}
	.st1{fill:#FFFFFF;}
</style>
<path class="st0" d="M9,12c2.8,0,5-2.2,5-5s-2.2-5-5-5S4,4.2,4,7S6.2,12,9,12z M9,3c2.2,0,4,1.8,4,4c0,2.2-1.8,4-4,4S5,9.2,5,7
	C5,4.8,6.8,3,9,3z M23.1,16.1l-0.7-0.7l-4.1,4.1C18,19.2,17.5,19,17,19h-2v-2c0-2.2-1.8-4-4-4H7c-2.2,0-4,1.8-4,4v7h1v-7
	c0-1.7,1.3-3,3-3h4c1.7,0,3,1.3,3,3v3h3c0.6,0,1,0.4,1,1c0,0.6-0.4,1-1,1h-4c-0.6,0-1-0.4-1-1v-3h-1v3c0,1.1,0.9,2,2,2v1h1v-1h3
	c1.1,0,2-0.9,2-2c0-0.2,0-0.4-0.1-0.6L23.1,16.1z"/>
</svg>
