<?xml version="1.0" encoding="utf-8"?>
<!-- Generator: Adobe Illustrator 27.0.1, SVG Export Plug-In . SVG Version: 6.00 Build 0)  -->
<svg version="1.1" xmlns="http://www.w3.org/2000/svg" xmlns:xlink="http://www.w3.org/1999/xlink" x="0px" y="0px"
	 viewBox="0 0 26 26" style="enable-background:new 0 0 26 26;" xml:space="preserve">
<style type="text/css">
	.st0{display:none;}
	.st1{display:inline;fill:#FFFFFF;}
	.st2{display:inline;fill:none;stroke:#FFFFFF;stroke-miterlimit:10;}
	.st3{display:inline;fill:#1EA0DC;}
	.st4{display:inline;}
	.st5{fill:#FFFFFF;}
	.st6{fill:none;stroke:#FFFFFF;stroke-width:2;stroke-linejoin:round;stroke-miterlimit:10;}
	.st7{display:inline;fill:#51565B;}
	.st8{fill:#EEEEEE;}
	.st9{fill:#51565B;}
	.st10{fill:none;stroke:#51565B;stroke-miterlimit:10;}
	.st11{display:inline;fill:none;stroke:#51565B;stroke-miterlimit:10;}
	.st12{display:inline;fill:none;stroke:#51565B;stroke-linejoin:bevel;stroke-miterlimit:10;}
	.st13{display:inline;fill:#FFFFFF;stroke:#51565B;stroke-miterlimit:10;}
	.st14{display:inline;fill:#A8AAAD;}
	.st15{fill:none;stroke:#FFFFFF;stroke-miterlimit:10;}
	.st16{display:inline;fill:none;stroke:#51565B;stroke-linejoin:round;stroke-miterlimit:10;}
	.st17{fill:none;stroke:#51565B;stroke-linejoin:round;stroke-miterlimit:10;}
	.st18{display:inline;fill:#FFFFFF;stroke:#FFFFFF;stroke-miterlimit:10;}
	.st19{fill:none;stroke:#FFFFFF;stroke-linejoin:round;stroke-miterlimit:10;}
	.st20{display:inline;fill:#FFFFFF;stroke:#1EA0DC;stroke-miterlimit:10;}
	.st21{fill:#51565B;stroke:#51565B;stroke-miterlimit:10;}
	.st22{display:inline;fill:#1EA0DC;stroke:#1EA0DC;stroke-miterlimit:10;}
	.st23{display:inline;fill:none;stroke:#1EA0DC;stroke-miterlimit:10;}
	.st24{display:inline;fill:#EEEEEE;}
	.st25{display:inline;fill:#EEEEEE;stroke:#51565B;stroke-miterlimit:10;}
	.st26{fill:#1EA0DC;}
	.st27{display:inline;fill:none;stroke:#1EA0DC;stroke-linejoin:bevel;stroke-miterlimit:10;}
	.st28{fill:none;stroke:#1EA0DC;stroke-miterlimit:10;}
	.st29{display:inline;fill:none;}
	.st30{clip-path:url(#SVGID_00000070807677683284873140000015835834958001681322_);}
	.st31{fill:none;stroke:#4B4B4B;stroke-width:3;stroke-linecap:round;stroke-linejoin:round;stroke-miterlimit:10;}
	.st32{display:inline;fill:#4B4B4B;}
	.st33{display:inline;fill:none;stroke:#4B4B4B;stroke-width:5;stroke-miterlimit:10;}
	.st34{display:inline;fill:none;stroke:#4B4B4B;stroke-width:3;stroke-miterlimit:10;}
	.st35{fill:none;stroke:#4B4B4B;stroke-width:3;stroke-linejoin:round;stroke-miterlimit:10;}
	.st36{fill:#A8AAAD;}
	.st37{display:inline;fill:#51565B;stroke:#51565B;stroke-miterlimit:10;}
	.st38{fill:#FFFFFF;stroke:#000000;stroke-width:2;stroke-miterlimit:10;}
	.st39{fill:none;stroke:#000000;stroke-width:2;stroke-linejoin:round;stroke-miterlimit:10;}
	.st40{fill:none;stroke:#000000;stroke-width:2;stroke-miterlimit:10;}
	.st41{display:inline;fill:#6A0000;}
	.st42{display:inline;fill:#008CD2;}
	.st43{fill-rule:evenodd;clip-rule:evenodd;}
	.st44{display:inline;fill:none;stroke:#000000;stroke-linejoin:round;stroke-miterlimit:10;}
	.st45{fill:none;stroke:#000000;stroke-width:3.7091;stroke-linecap:round;stroke-miterlimit:10;}
	.st46{fill:none;stroke:#000000;stroke-width:2.2255;stroke-linecap:round;stroke-linejoin:round;stroke-miterlimit:10;}
	.st47{fill:none;stroke:#000000;stroke-width:3.7091;stroke-linecap:round;stroke-linejoin:round;stroke-miterlimit:10;}
	
		.st48{clip-path:url(#SVGID_00000108284762860653437270000002070156254886206909_);fill:none;stroke:#000000;stroke-width:1.1127;stroke-miterlimit:10;}
	.st49{display:inline;opacity:0.6;}
	.st50{display:inline;fill:none;stroke:#000000;stroke-width:3.7091;stroke-linecap:round;stroke-miterlimit:10;}
	
		.st51{display:inline;fill:none;stroke:#000000;stroke-width:2.2255;stroke-linecap:round;stroke-linejoin:round;stroke-miterlimit:10;}
	
		.st52{display:inline;fill:none;stroke:#000000;stroke-width:3.7091;stroke-linecap:round;stroke-linejoin:round;stroke-miterlimit:10;}
	
		.st53{clip-path:url(#SVGID_00000161598747695822406120000018232985415533338542_);fill:none;stroke:#000000;stroke-width:1.1127;stroke-miterlimit:10;}
	.st54{display:inline;fill:none;stroke:#000000;stroke-width:2;stroke-linejoin:round;stroke-miterlimit:10;}
	.st55{display:inline;fill:none;stroke:#000000;stroke-width:2;stroke-miterlimit:10;}
	.st56{display:inline;fill:#FFFFFF;stroke:#000000;stroke-width:2;stroke-miterlimit:10;}
	.st57{fill:none;stroke:#FFFFFF;stroke-width:2;stroke-miterlimit:10;}
	.st58{display:inline;fill:none;stroke:#FFFFFF;stroke-width:2;stroke-miterlimit:10;}
	.st59{display:inline;fill:none;stroke:#000000;stroke-width:2;stroke-miterlimit:6;}
	.st60{fill:none;stroke:#A8AAAD;stroke-linejoin:round;stroke-miterlimit:10;}
	.st61{display:inline;fill:none;stroke:#1EA0DC;stroke-width:2;stroke-miterlimit:10;}
	.st62{display:inline;fill:none;stroke:#A8AAAD;stroke-linecap:round;stroke-miterlimit:10;}
	.st63{display:inline;fill:none;stroke:#A8AAAD;stroke-linejoin:round;stroke-miterlimit:10;}
	.st64{display:inline;fill:none;stroke:#A8AAAD;stroke-miterlimit:10;}
	.st65{fill:none;stroke:#A8AAAD;stroke-width:2;stroke-miterlimit:10;}
	.st66{fill:none;stroke:#A8AAAD;stroke-width:2;stroke-linejoin:round;stroke-miterlimit:10;}
	.st67{display:inline;fill:none;stroke:#A8AAAD;stroke-width:2;stroke-miterlimit:10;}
	.st68{display:inline;fill:#FFFFFF;stroke:#FFFFFF;stroke-width:2;stroke-miterlimit:10;}
	.st69{display:inline;fill:none;stroke:#FF00FF;stroke-miterlimit:10;}
	.st70{fill:none;stroke:#FF00FF;stroke-miterlimit:10;}
</style>
<g id="初稿" class="st0">
</g>
<g id="初稿-サブ" class="st0">
</g>
<g id="初稿-調整" class="st0">
</g>
<g id="_x32_稿" class="st0">
	<path class="st7" d="M7,23v-1c-0.6,0-1-0.4-1-1H5C5,22.1,5.9,23,7,23z"/>
	<path class="st7" d="M21,21h-1c0,0.6-0.4,1-1,1v1C20.1,23,21,22.1,21,21z"/>
	<rect x="12.5" y="16.5" transform="matrix(-1.836970e-16 1 -1 -1.836970e-16 35.5 9.5)" class="st7" width="1" height="12"/>
	<polygon class="st7" points="6,10 5,11 5,21 6,21 	"/>
	<rect x="20" y="13" class="st7" width="1" height="8"/>
	<g class="st4">
		<rect x="17" y="15" transform="matrix(-1 -2.910395e-11 2.910395e-11 -1 35 32)" class="st9" width="1" height="2"/>
		<g>
			<rect x="8" y="12" transform="matrix(-1 -2.910395e-11 2.910395e-11 -1 17 26)" class="st9" width="1" height="2"/>
			<rect x="9" y="11" transform="matrix(-1 -1.455204e-11 1.455204e-11 -1 19 23)" class="st9" width="1" height="1"/>
			<path class="st9" d="M9,12H8c0-0.3,0.1-0.5,0.3-0.7S8.7,11,9,11V12z"/>
		</g>
		<g>
			<rect x="13" y="11" transform="matrix(5.820772e-11 -1 1 5.820772e-11 2 25)" class="st9" width="1" height="1"/>
			<rect x="13.5" y="12.5" transform="matrix(3.001339e-11 -1 1 3.001339e-11 1.5 27.5)" class="st9" width="2" height="1"/>
			<path class="st9" d="M14,12v-1c0.3,0,0.5,0.1,0.7,0.3S15,11.7,15,12H14z"/>
		</g>
		<circle class="st9" cx="17.5" cy="14.5" r="1.5"/>
		<circle class="st36" cx="17.5" cy="14.5" r="0.5"/>
		<path class="st9" d="M14.5,19.5c-1.4,0-2.5-1.1-2.5-2.5h-1c0,1.9,1.6,3.5,3.5,3.5S18,18.9,18,17h-1C17,18.4,15.9,19.5,14.5,19.5z"
			/>
		<path class="st9" d="M11.5,16.5C10.1,16.5,9,15.4,9,14H8c0,1.9,1.6,3.5,3.5,3.5S15,15.9,15,14h-1C14,15.4,12.9,16.5,11.5,16.5z"/>
	</g>
	<g class="st4">
		<path class="st10" d="M3,13l9.6-9.6c0.2-0.2,0.5-0.2,0.7,0L23,13"/>
	</g>
</g>
<g id="_x32_稿-サブ" class="st0">
</g>
<g id="_x32_稿-調整">
	<g>
		<path class="st9" d="M10,12v-1H9c-0.3,0-0.5,0.1-0.7,0.3C8.1,11.5,8,11.7,8,12v2c0,1.8,1.3,3.2,3,3.5c0.2,1.7,1.7,3,3.5,3
			c1.9,0,3.5-1.6,3.5-3.5v-1.1c0.6-0.2,1-0.8,1-1.4c0-0.8-0.7-1.5-1.5-1.5S16,13.7,16,14.5c0,0.7,0.4,1.2,1,1.4V17
			c0,1.4-1.1,2.5-2.5,2.5c-1.2,0-2.2-0.9-2.5-2.1c1.7-0.3,3-1.7,3-3.4v-2c0-0.3-0.1-0.5-0.3-0.7C14.5,11.1,14.3,11,14,11h-1v1h1v2
			c0,1.4-1.1,2.5-2.5,2.5C10.1,16.5,9,15.4,9,14v-2H10z M17.5,14c0.3,0,0.5,0.2,0.5,0.5c0,0.3-0.2,0.5-0.5,0.5S17,14.8,17,14.5
			C17,14.2,17.2,14,17.5,14z"/>
		<path class="st9" d="M23.4,12.6L13.7,3c-0.4-0.4-1-0.4-1.4,0l-9.6,9.6l0.7,0.7L5,11.7V21c0,1.1,0.9,2,2,2h12c1.1,0,2-0.9,2-2v-8
			h-1v8c0,0.6-0.4,1-1,1H7c-0.6,0-1-0.4-1-1V10.7l7-7l9.6,9.6L23.4,12.6z"/>
	</g>
</g>
<g id="_x32_稿-ゴミ" class="st0">
</g>
<g id="パーツ残骸" class="st0">
</g>
<g id="レイヤー_8" class="st0">
</g>
</svg>
