<?xml version="1.0" encoding="utf-8"?>
<!-- Generator: Adobe Illustrator 25.2.3, SVG Export Plug-In . SVG Version: 6.00 Build 0)  -->
<svg version="1.1" id="_x32_稿-調整" xmlns="http://www.w3.org/2000/svg" xmlns:xlink="http://www.w3.org/1999/xlink" x="0px"
	 y="0px" viewBox="0 0 26 26" style="enable-background:new 0 0 26 26;" xml:space="preserve" width="26" height="26">
<style type="text/css">
	.st0{fill:#51565B;}
	.st1{fill:#FFFFFF;}
</style>
<path class="st1" d="M20.3,21.3c-0.4,0.4-0.4,1,0,1.4c0.4,0.4,1,0.4,1.4,0c0.2-0.2,0.3-0.4,0.3-0.6c0,0,0-0.1,0-0.1v0
	c0-0.2-0.1-0.5-0.3-0.7C21.3,20.9,20.7,20.9,20.3,21.3z M10,7V2.3L4.3,8H9C9.6,8,10,7.6,10,7z M20,2h-9v5c0,1.1-0.9,2-2,2v0H4v13
	c0,1.1,0.9,2,2,2h14c0.2,0,0.3,0,0.5-0.1c-0.3-0.1-0.7-0.3-0.9-0.5L16,19.9c-1.3,0.4-2.8,0-3.9-1c-1.2-1.2-1.5-2.9-0.9-4.4l2.3,2.3
	l2.1-2.1l-2.3-2.3c1.5-0.6,3.2-0.3,4.4,0.9c1,1,1.4,2.5,1,3.9l3.1,3.1V4C22,2.9,21.1,2,20,2z"/>
</svg>
