<?xml version="1.0" encoding="utf-8"?>
<!-- Generator: Adobe Illustrator 27.0.1, SVG Export Plug-In . SVG Version: 6.00 Build 0)  -->
<svg version="1.1" xmlns="http://www.w3.org/2000/svg" xmlns:xlink="http://www.w3.org/1999/xlink" x="0px" y="0px"
	 viewBox="0 0 26 26" style="enable-background:new 0 0 26 26;" xml:space="preserve">
<style type="text/css">
	.st0{display:none;}
	.st1{display:inline;fill:#FFFFFF;}
	.st2{display:inline;fill:none;stroke:#FFFFFF;stroke-miterlimit:10;}
	.st3{display:inline;fill:#1EA0DC;}
	.st4{display:inline;}
	.st5{fill:#FFFFFF;}
	.st6{fill:none;stroke:#FFFFFF;stroke-width:2;stroke-linejoin:round;stroke-miterlimit:10;}
	.st7{display:inline;fill:#51565B;}
	.st8{fill:#EEEEEE;}
	.st9{fill:#51565B;}
	.st10{fill:none;stroke:#51565B;stroke-miterlimit:10;}
	.st11{display:inline;fill:none;stroke:#51565B;stroke-miterlimit:10;}
	.st12{display:inline;fill:none;stroke:#51565B;stroke-linejoin:bevel;stroke-miterlimit:10;}
	.st13{display:inline;fill:#FFFFFF;stroke:#51565B;stroke-miterlimit:10;}
	.st14{display:inline;fill:#A8AAAD;}
	.st15{fill:none;stroke:#FFFFFF;stroke-miterlimit:10;}
	.st16{display:inline;fill:none;stroke:#51565B;stroke-linejoin:round;stroke-miterlimit:10;}
	.st17{fill:none;stroke:#51565B;stroke-linejoin:round;stroke-miterlimit:10;}
	.st18{display:inline;fill:#FFFFFF;stroke:#FFFFFF;stroke-miterlimit:10;}
	.st19{fill:none;stroke:#FFFFFF;stroke-linejoin:round;stroke-miterlimit:10;}
	.st20{display:inline;fill:#FFFFFF;stroke:#1EA0DC;stroke-miterlimit:10;}
	.st21{fill:#51565B;stroke:#51565B;stroke-miterlimit:10;}
	.st22{display:inline;fill:#1EA0DC;stroke:#1EA0DC;stroke-miterlimit:10;}
	.st23{display:inline;fill:none;stroke:#1EA0DC;stroke-miterlimit:10;}
	.st24{display:inline;fill:#EEEEEE;}
	.st25{display:inline;fill:#EEEEEE;stroke:#51565B;stroke-miterlimit:10;}
	.st26{fill:#1EA0DC;}
	.st27{display:inline;fill:none;stroke:#1EA0DC;stroke-linejoin:bevel;stroke-miterlimit:10;}
	.st28{fill:none;stroke:#1EA0DC;stroke-miterlimit:10;}
	.st29{display:inline;fill:none;}
	.st30{clip-path:url(#SVGID_00000068677111121905135690000014976653100393341850_);}
	.st31{fill:none;stroke:#4B4B4B;stroke-width:3;stroke-linecap:round;stroke-linejoin:round;stroke-miterlimit:10;}
	.st32{display:inline;fill:#4B4B4B;}
	.st33{display:inline;fill:none;stroke:#4B4B4B;stroke-width:5;stroke-miterlimit:10;}
	.st34{display:inline;fill:none;stroke:#4B4B4B;stroke-width:3;stroke-miterlimit:10;}
	.st35{fill:none;stroke:#4B4B4B;stroke-width:3;stroke-linejoin:round;stroke-miterlimit:10;}
	.st36{fill:#A8AAAD;}
	.st37{display:inline;fill:#51565B;stroke:#51565B;stroke-miterlimit:10;}
	.st38{fill:#FFFFFF;stroke:#000000;stroke-width:2;stroke-miterlimit:10;}
	.st39{fill:none;stroke:#000000;stroke-width:2;stroke-linejoin:round;stroke-miterlimit:10;}
	.st40{fill:none;stroke:#000000;stroke-width:2;stroke-miterlimit:10;}
	.st41{display:inline;fill:#6A0000;}
	.st42{display:inline;fill:#008CD2;}
	.st43{fill-rule:evenodd;clip-rule:evenodd;}
	.st44{display:inline;fill:none;stroke:#000000;stroke-linejoin:round;stroke-miterlimit:10;}
	.st45{fill:none;stroke:#000000;stroke-width:3.7091;stroke-linecap:round;stroke-miterlimit:10;}
	.st46{fill:none;stroke:#000000;stroke-width:2.2255;stroke-linecap:round;stroke-linejoin:round;stroke-miterlimit:10;}
	.st47{fill:none;stroke:#000000;stroke-width:3.7091;stroke-linecap:round;stroke-linejoin:round;stroke-miterlimit:10;}
	
		.st48{clip-path:url(#SVGID_00000074438948031686213020000005797193253777408677_);fill:none;stroke:#000000;stroke-width:1.1127;stroke-miterlimit:10;}
	.st49{display:inline;opacity:0.6;}
	.st50{display:inline;fill:none;stroke:#000000;stroke-width:3.7091;stroke-linecap:round;stroke-miterlimit:10;}
	
		.st51{display:inline;fill:none;stroke:#000000;stroke-width:2.2255;stroke-linecap:round;stroke-linejoin:round;stroke-miterlimit:10;}
	
		.st52{display:inline;fill:none;stroke:#000000;stroke-width:3.7091;stroke-linecap:round;stroke-linejoin:round;stroke-miterlimit:10;}
	
		.st53{clip-path:url(#SVGID_00000070818240415332303580000016345028177589320884_);fill:none;stroke:#000000;stroke-width:1.1127;stroke-miterlimit:10;}
	.st54{display:inline;fill:none;stroke:#000000;stroke-width:2;stroke-linejoin:round;stroke-miterlimit:10;}
	.st55{display:inline;fill:none;stroke:#000000;stroke-width:2;stroke-miterlimit:10;}
	.st56{display:inline;fill:#FFFFFF;stroke:#000000;stroke-width:2;stroke-miterlimit:10;}
	.st57{fill:none;stroke:#FFFFFF;stroke-width:2;stroke-miterlimit:10;}
	.st58{display:inline;fill:none;stroke:#FFFFFF;stroke-width:2;stroke-miterlimit:10;}
	.st59{display:inline;fill:none;stroke:#000000;stroke-width:2;stroke-miterlimit:6;}
	.st60{fill:none;stroke:#A8AAAD;stroke-linejoin:round;stroke-miterlimit:10;}
	.st61{display:inline;fill:none;stroke:#1EA0DC;stroke-width:2;stroke-miterlimit:10;}
	.st62{display:inline;fill:none;stroke:#A8AAAD;stroke-linecap:round;stroke-miterlimit:10;}
	.st63{display:inline;fill:none;stroke:#A8AAAD;stroke-linejoin:round;stroke-miterlimit:10;}
	.st64{display:inline;fill:none;stroke:#A8AAAD;stroke-miterlimit:10;}
	.st65{fill:none;stroke:#A8AAAD;stroke-width:2;stroke-miterlimit:10;}
	.st66{fill:none;stroke:#A8AAAD;stroke-width:2;stroke-linejoin:round;stroke-miterlimit:10;}
	.st67{display:inline;fill:none;stroke:#A8AAAD;stroke-width:2;stroke-miterlimit:10;}
	.st68{display:inline;fill:#FFFFFF;stroke:#FFFFFF;stroke-width:2;stroke-miterlimit:10;}
	.st69{display:inline;fill:none;stroke:#FF00FF;stroke-miterlimit:10;}
	.st70{fill:none;stroke:#FF00FF;stroke-miterlimit:10;}
</style>
<g id="初稿" class="st0">
	<circle class="st7" cx="13" cy="13" r="4"/>
	<g class="st4">
		<path class="st9" d="M14,3c0.6,0,1,0.4,1,1v1.6c0,0.4,0.2,0.8,0.6,0.9c0.6,0.2,1.2,0.6,1.7,1c0.2,0.1,0.4,0.2,0.6,0.2
			c0.2,0,0.3,0,0.5-0.1l1.4-0.8c0.2-0.1,0.3-0.1,0.5-0.1c0.4,0,0.7,0.2,0.9,0.5l1,1.7c0.3,0.5,0.1,1.1-0.4,1.4L20.4,11
			c-0.4,0.2-0.5,0.6-0.5,1c0.1,0.4,0.1,0.7,0.1,1s0,0.6-0.1,1c-0.1,0.4,0.1,0.8,0.5,1l1.4,0.8c0.5,0.3,0.6,0.9,0.4,1.4l-1,1.7
			c-0.2,0.3-0.5,0.5-0.9,0.5c-0.2,0-0.3,0-0.5-0.1l-1.4-0.8c-0.2-0.1-0.3-0.1-0.5-0.1c-0.2,0-0.4,0.1-0.6,0.2
			c-0.5,0.4-1.1,0.7-1.7,1C15.2,19.6,15,20,15,20.4V22c0,0.6-0.4,1-1,1h-2c-0.6,0-1-0.4-1-1v-1.6c0-0.4-0.2-0.8-0.6-0.9
			c-0.6-0.2-1.2-0.6-1.7-1c-0.2-0.1-0.4-0.2-0.6-0.2c-0.2,0-0.3,0-0.5,0.1l-1.4,0.8c-0.2,0.1-0.3,0.1-0.5,0.1
			c-0.4,0-0.7-0.2-0.9-0.5l-1-1.7c-0.3-0.5-0.1-1.1,0.4-1.4L5.6,15c0.4-0.2,0.5-0.6,0.5-1C6,13.6,6,13.3,6,13s0-0.6,0.1-1
			c0.1-0.4-0.1-0.8-0.5-1l-1.4-0.8C3.7,10,3.6,9.3,3.8,8.9l1-1.7C5,6.8,5.4,6.6,5.7,6.6c0.2,0,0.3,0,0.5,0.1l1.4,0.8
			c0.2,0.1,0.3,0.1,0.5,0.1c0.2,0,0.4-0.1,0.6-0.2c0.5-0.4,1.1-0.7,1.7-1C10.8,6.4,11,6,11,5.6V4c0-0.6,0.4-1,1-1H14 M14,2h-2
			c-1.1,0-2,0.9-2,2v1.6C9.3,5.9,8.7,6.2,8.1,6.7L6.7,5.9C6.4,5.7,6,5.6,5.7,5.6C5,5.6,4.3,6,4,6.6L3,8.4c-0.6,1-0.2,2.2,0.7,2.7
			l1.4,0.8C5,12.3,5,12.6,5,13s0,0.7,0.1,1.1l-1.4,0.8c-1,0.6-1.3,1.8-0.7,2.7l1,1.7c0.4,0.6,1,1,1.7,1c0.3,0,0.7-0.1,1-0.3l1.4-0.8
			c0.6,0.5,1.2,0.8,1.9,1.1V22c0,1.1,0.9,2,2,2h2c1.1,0,2-0.9,2-2v-1.6c0.7-0.3,1.3-0.7,1.9-1.1l1.4,0.8c0.3,0.2,0.7,0.3,1,0.3
			c0.7,0,1.4-0.4,1.7-1l1-1.7c0.6-1,0.2-2.2-0.7-2.7l-1.4-0.8C21,13.7,21,13.4,21,13s0-0.7-0.1-1.1l1.4-0.8c1-0.6,1.3-1.8,0.7-2.7
			l-1-1.7c-0.4-0.6-1-1-1.7-1c-0.3,0-0.7,0.1-1,0.3l-1.4,0.8c-0.6-0.5-1.2-0.8-1.9-1.1V4C16,2.9,15.1,2,14,2L14,2z"/>
	</g>
</g>
<g id="初稿-サブ" class="st0">
</g>
<g id="初稿-調整" class="st0">
	<path class="st7" d="M13,9c-2.2,0-4,1.8-4,4c0,2.2,1.8,4,4,4s4-1.8,4-4C17,10.8,15.2,9,13,9z M22.3,14.9l-1.4-0.8
		C21,13.7,21,13.4,21,13s0-0.7-0.1-1.1l1.4-0.8c1-0.6,1.3-1.8,0.7-2.7l-1-1.7c-0.4-0.6-1-1-1.7-1c-0.3,0-0.7,0.1-1,0.3l-1.4,0.8
		c-0.6-0.5-1.2-0.8-1.9-1.1V4c0-1.1-0.9-2-2-2h-2c-1.1,0-2,0.9-2,2v1.6C9.3,5.9,8.7,6.2,8.1,6.7L6.7,5.9C6.4,5.7,6,5.6,5.7,5.6
		C5,5.6,4.3,6,4,6.6L3,8.4c-0.6,1-0.2,2.2,0.7,2.7l1.4,0.8C5,12.3,5,12.6,5,13s0,0.7,0.1,1.1l-1.4,0.8c-1,0.6-1.3,1.8-0.7,2.7l1,1.7
		c0.4,0.6,1,1,1.7,1c0.3,0,0.7-0.1,1-0.3l1.4-0.8c0.6,0.5,1.2,0.8,1.9,1.1V22c0,1.1,0.9,2,2,2h2c1.1,0,2-0.9,2-2v-1.6
		c0.7-0.3,1.3-0.7,1.9-1.1l1.4,0.8c0.3,0.2,0.7,0.3,1,0.3c0.7,0,1.4-0.4,1.7-1l1-1.7C23.6,16.7,23.3,15.5,22.3,14.9z M22.2,17.1
		l-1,1.7c-0.2,0.3-0.5,0.5-0.9,0.5c-0.2,0-0.3,0-0.5-0.1l-1.4-0.8c-0.2-0.1-0.3-0.1-0.5-0.1c-0.2,0-0.4,0.1-0.6,0.2
		c-0.5,0.4-1.1,0.7-1.7,1C15.2,19.6,15,20,15,20.4V22c0,0.6-0.4,1-1,1h-2c-0.6,0-1-0.4-1-1v-1.6c0-0.4-0.2-0.8-0.6-0.9
		c-0.6-0.2-1.2-0.6-1.7-1c-0.2-0.1-0.4-0.2-0.6-0.2c-0.2,0-0.3,0-0.5,0.1l-1.4,0.8c-0.2,0.1-0.3,0.1-0.5,0.1c-0.4,0-0.7-0.2-0.9-0.5
		l-1-1.7c-0.3-0.5-0.1-1.1,0.4-1.4L5.6,15c0.4-0.2,0.5-0.6,0.5-1C6,13.6,6,13.3,6,13c0-0.3,0-0.6,0.1-1c0.1-0.4-0.1-0.8-0.5-1
		l-1.4-0.8C3.7,10,3.6,9.3,3.8,8.9l1-1.7C5,6.8,5.4,6.6,5.7,6.6c0.2,0,0.3,0,0.5,0.1l1.4,0.8c0.2,0.1,0.3,0.1,0.5,0.1
		c0.2,0,0.4-0.1,0.6-0.2c0.5-0.4,1.1-0.7,1.7-1C10.8,6.4,11,6,11,5.6V4c0-0.6,0.4-1,1-1h2c0.6,0,1,0.4,1,1v1.6
		c0,0.4,0.2,0.8,0.6,0.9c0.6,0.2,1.2,0.6,1.7,1c0.2,0.1,0.4,0.2,0.6,0.2c0.2,0,0.3,0,0.5-0.1l1.4-0.8c0.2-0.1,0.3-0.1,0.5-0.1
		c0.4,0,0.7,0.2,0.9,0.5l1,1.7c0.3,0.5,0.1,1.1-0.4,1.4L20.4,11c-0.4,0.2-0.5,0.6-0.5,1c0.1,0.4,0.1,0.7,0.1,1c0,0.3,0,0.6-0.1,1
		c-0.1,0.4,0.1,0.8,0.5,1l1.4,0.8C22.3,16,22.4,16.7,22.2,17.1z"/>
</g>
<g id="_x32_稿" class="st0">
	<g class="st4">
		<path class="st9" d="M13,9c2.2,0,4,1.8,4,4s-1.8,4-4,4s-4-1.8-4-4S10.8,9,13,9 M13,8c-2.8,0-5,2.2-5,5s2.2,5,5,5c2.8,0,5-2.2,5-5
			S15.8,8,13,8L13,8z"/>
	</g>
	<g class="st4">
		<path class="st9" d="M14.5,3v1.4v0.8l0.7,0.2c0.6,0.2,1.1,0.4,1.6,0.7l0.7,0.4l0.5-0.5l1-1L21.1,7l-1,1l-0.5,0.5L20,9.1
			c0.3,0.5,0.5,1.1,0.7,1.6l0.2,0.7h0.8H23v3h-1.4h-0.8l-0.2,0.7c-0.2,0.6-0.4,1.1-0.7,1.6l-0.4,0.7l0.5,0.5l1,1L19,21.1l-1-1
			l-0.5-0.5L16.9,20c-0.5,0.3-1.1,0.5-1.6,0.7l-0.7,0.2v0.8V23h-3v-1.4v-0.8l-0.7-0.2c-0.6-0.2-1.1-0.4-1.6-0.7l-0.7-0.4l-0.5,0.5
			l-1,1L4.9,19l1-1l0.5-0.5L6,16.9c-0.3-0.5-0.5-1.1-0.7-1.6l-0.2-0.7H4.4H3v-3h1.4h0.8l0.2-0.7C5.5,10.2,5.7,9.6,6,9.1l0.4-0.7
			L5.8,7.9l-1-1L7,4.9l1,1l0.5,0.5L9.1,6c0.5-0.3,1.1-0.5,1.6-0.7l0.7-0.2V4.4V3H14.5 M14.5,2h-3c-0.5,0-1,0.5-1,1v1.4
			C9.9,4.5,9.2,4.8,8.7,5.1l-1-1C7.5,4,7.2,3.9,7,3.9S6.5,4,6.3,4.2L4.2,6.3c-0.4,0.4-0.4,1,0,1.4l1,1c-0.3,0.6-0.6,1.2-0.8,1.8H3
			c-0.5,0-1,0.5-1,1v3c0,0.5,0.5,1,1,1h1.4c0.2,0.6,0.4,1.3,0.8,1.8l-1,1c-0.4,0.4-0.4,1,0,1.4l2.1,2.1C6.5,22,6.7,22.1,7,22.1
			s0.5-0.1,0.7-0.3l1-1c0.6,0.3,1.2,0.6,1.8,0.8V23c0,0.5,0.5,1,1,1h3c0.5,0,1-0.5,1-1v-1.4c0.6-0.2,1.3-0.4,1.8-0.8l1,1
			c0.2,0.2,0.5,0.3,0.7,0.3s0.5-0.1,0.7-0.3l2.1-2.1c0.4-0.4,0.4-1,0-1.4l-1-1c0.3-0.6,0.6-1.2,0.8-1.8H23c0.5,0,1-0.5,1-1v-3
			c0-0.5-0.5-1-1-1h-1.4c-0.2-0.6-0.4-1.3-0.8-1.8l1-1c0.4-0.4,0.4-1,0-1.4l-2.1-2.1C19.5,4,19.3,3.9,19,3.9S18.5,4,18.3,4.2l-1,1
			c-0.6-0.3-1.2-0.6-1.8-0.8V3C15.5,2.5,15,2,14.5,2L14.5,2z"/>
	</g>
</g>
<g id="_x32_稿-サブ" class="st0">
</g>
<g id="_x32_稿-調整">
	<path class="st9" d="M13,8c-2.8,0-5,2.2-5,5s2.2,5,5,5s5-2.2,5-5S15.8,8,13,8z M13,17c-2.2,0-4-1.8-4-4s1.8-4,4-4s4,1.8,4,4
		S15.2,17,13,17z M23,10.5h-1.4c-0.2-0.6-0.4-1.3-0.8-1.8l1-1c0.4-0.4,0.4-1,0-1.4l-2.1-2.1C19.5,4,19.3,3.9,19,3.9
		c-0.3,0-0.5,0.1-0.7,0.3l-1,1c-0.6-0.3-1.2-0.6-1.8-0.8V3c0-0.5-0.5-1-1-1h-3c-0.5,0-1,0.5-1,1v1.4C9.9,4.5,9.2,4.8,8.7,5.1l-1-1
		C7.5,4,7.2,3.9,7,3.9C6.7,3.9,6.5,4,6.3,4.2L4.2,6.3c-0.4,0.4-0.4,1,0,1.4l1,1c-0.3,0.6-0.6,1.2-0.8,1.8H3c-0.5,0-1,0.5-1,1v3
		c0,0.5,0.5,1,1,1h1.4c0.2,0.6,0.4,1.3,0.8,1.8l-1,1c-0.4,0.4-0.4,1,0,1.4l2.1,2.1C6.5,22,6.7,22.1,7,22.1c0.3,0,0.5-0.1,0.7-0.3
		l1-1c0.6,0.3,1.2,0.6,1.8,0.8V23c0,0.5,0.5,1,1,1h3c0.5,0,1-0.5,1-1v-1.4c0.6-0.2,1.3-0.4,1.8-0.8l1,1c0.2,0.2,0.5,0.3,0.7,0.3
		c0.3,0,0.5-0.1,0.7-0.3l2.1-2.1c0.4-0.4,0.4-1,0-1.4l-1-1c0.3-0.6,0.6-1.2,0.8-1.8H23c0.5,0,1-0.5,1-1v-3C24,11,23.5,10.5,23,10.5z
		 M23,14.5h-1.4h-0.8l-0.2,0.7c-0.2,0.6-0.4,1.1-0.7,1.6l-0.4,0.7l0.5,0.5l1,1L19,21.1l-1-1l-0.5-0.5L16.9,20
		c-0.5,0.3-1.1,0.5-1.6,0.7l-0.7,0.2v0.8V23h-3v-1.4v-0.8l-0.7-0.2c-0.6-0.2-1.1-0.4-1.6-0.7l-0.7-0.4l-0.5,0.5l-1,1L4.9,19l1-1
		l0.5-0.5L6,16.9c-0.3-0.5-0.5-1.1-0.7-1.6l-0.2-0.7H4.4H3v-3h1.4h0.8l0.2-0.7C5.5,10.2,5.7,9.6,6,9.1l0.4-0.7L5.8,7.9l-1-1L7,4.9
		l1,1l0.5,0.5L9.1,6c0.5-0.3,1.1-0.5,1.6-0.7l0.7-0.2V4.4V3h3v1.4v0.8l0.7,0.2c0.6,0.2,1.1,0.4,1.6,0.7l0.7,0.4l0.5-0.5l1-1L21.1,7
		l-1,1l-0.5,0.5L20,9.1c0.3,0.5,0.5,1.1,0.7,1.6l0.2,0.7h0.8H23V14.5z"/>
</g>
<g id="_x32_稿-ゴミ" class="st0">
</g>
<g id="パーツ残骸" class="st0">
</g>
<g id="レイヤー_8" class="st0">
</g>
</svg>
