<?xml version="1.0" encoding="utf-8"?>
<!-- Generator: Adobe Illustrator 25.2.3, SVG Export Plug-In . SVG Version: 6.00 Build 0)  -->
<svg version="1.1" id="_x32_稿-調整" xmlns="http://www.w3.org/2000/svg" xmlns:xlink="http://www.w3.org/1999/xlink" x="0px"
	 y="0px" viewBox="0 0 26 26" style="enable-background:new 0 0 26 26;" xml:space="preserve" width="26" height="26">
<style type="text/css">
	.st0{fill:#51565B;}
	.st1{fill:#FFFFFF;}
</style>
<path class="st1" d="M17,4c0-0.6-0.4-1-1-1h-6C9.4,3,9,3.4,9,4v2h8V4z M20,4L20,4l-2,0v3H8V4H6v0C4.9,4,4,4.9,4,6v16
	c0,1.1,0.9,2,2,2h3v-4c0-1.1,0.9-2,2-2v0h1v-3c0-1.1,0.9-2,2-2s2,0.9,2,2v4l-5,0v5h3v-3h-2v-1h4c0.6,0,1-0.4,1-1v-4h1v4
	c0,1.1-0.9,2-2,2h-1v3h5c1.1,0,2-0.9,2-2V6C22,4.9,21.1,4,20,4z M13,12c-1.1,0-2-0.9-2-2c0-1.1,0.9-2,2-2s2,0.9,2,2
	C15,11.1,14.1,12,13,12z"/>
</svg>
