<?xml version="1.0" encoding="utf-8"?>
<!-- Generator: Adobe Illustrator 25.2.3, SVG Export Plug-In . SVG Version: 6.00 Build 0)  -->
<svg version="1.1" id="_x32_稿-調整" xmlns="http://www.w3.org/2000/svg" xmlns:xlink="http://www.w3.org/1999/xlink" x="0px"
	 y="0px" viewBox="0 0 26 26" style="enable-background:new 0 0 26 26;" xml:space="preserve" width="26" height="26">
<style type="text/css">
	.st0{fill:#51565B;}
	.st1{fill:#FFFFFF;}
</style>
<path class="st0" d="M15.5,2C10.8,2,7,5.8,7,10.5c0,0.5,0.1,1,0.1,1.5h1C8.1,11.5,8,11,8,10.5C8,6.4,11.4,3,15.5,3S23,6.4,23,10.5
	c0,2.9-1.6,5.4-4,6.6v1.1c2.9-1.3,5-4.3,5-7.7C24,5.8,20.2,2,15.5,2z M16,13v1c0.6,0,1,0.4,1,1v7c0,0.6-0.4,1-1,1H4
	c-0.6,0-1-0.4-1-1v-7c0-0.6,0.4-1,1-1v-1c-1.1,0-2,0.9-2,2v7c0,1.1,0.9,2,2,2h12c1.1,0,2-0.9,2-2v-7C18,13.9,17.1,13,16,13z M13,13
	H7v1h6V13z M8.5,16.7L7.8,16l-1.4,1.4l-0.7-0.7L5,17.4l1.4,1.4L8.5,16.7z M8.5,19.7L7.8,19l-1.4,1.4l-0.7-0.7L5,20.4l1.4,1.4
	L8.5,19.7z M9,18h6v-1H9V18z M6,12H5v3h1V12z M15,12h-1v3h1V12z M15,4v7h6v-1h-5V4H15z M9,21h6v-1H9V21z"/>
</svg>
