<?xml version="1.0" encoding="utf-8"?>
<!-- Generator: Adobe Illustrator 25.2.3, SVG Export Plug-In . SVG Version: 6.00 Build 0)  -->
<svg version="1.1" id="_x32_稿-調整" xmlns="http://www.w3.org/2000/svg" xmlns:xlink="http://www.w3.org/1999/xlink" x="0px"
	 y="0px" viewBox="0 0 26 26" style="enable-background:new 0 0 26 26;" xml:space="preserve" width="26" height="26">
<style type="text/css">
	.st0{fill:#51565B;}
	.st1{fill:#FFFFFF;}
</style>
<path class="st0" d="M16,16c0,1.7,1.3,3,3,3s3-1.3,3-3s-1.3-3-3-3S16,14.3,16,16z M21,16c0,1.1-0.9,2-2,2s-2-0.9-2-2s0.9-2,2-2
	S21,14.9,21,16z M19,20c-2.2,0-4,1.8-4,4h1c0-1.7,1.3-3,3-3s3,1.3,3,3h1C23,21.8,21.2,20,19,20z M6,6H5v1h1V6z M9,6H8v1h1V6z M6,8H5
	v1h1V8z M9,8H8v1h1V8z M12,12h-1V4H3v8H2v1h10V12z M10,12H8v-2H6v2H4V5h6V12z M13.8,7H14c2.8,0,5,2.2,5,5h1c0-3.3-2.7-6-6-6h-0.2
	l1.3-1.3L14.4,4l-2.5,2.5L14.4,9l0.7-0.7L13.8,7z M10.9,17.7l1.3,1.3H12c-2.8,0-5-2.2-5-5H6c0,3.3,2.7,6,6,6h0.2l-1.3,1.3l0.7,0.7
	l2.5-2.5L11.6,17L10.9,17.7z"/>
</svg>
