<?xml version="1.0" encoding="utf-8"?>
<!-- Generator: Adobe Illustrator 25.2.3, SVG Export Plug-In . SVG Version: 6.00 Build 0)  -->
<svg version="1.1" id="_x32_稿-調整" xmlns="http://www.w3.org/2000/svg" xmlns:xlink="http://www.w3.org/1999/xlink" x="0px"
	 y="0px" viewBox="0 0 26 26" style="enable-background:new 0 0 26 26;" xml:space="preserve" width="26" height="26">
<style type="text/css">
	.st0{fill:#51565B;}
	.st1{fill:#FFFFFF;}
</style>
<path class="st1" d="M20.5,9c-0.5,0-1.3,0.1-1.9,0.6c-0.4,0.4-4,4-4,4l2.2,2.2l1.1-1.1V24h2v-5h1v5h2V11.5C23,10.1,21.9,9,20.5,9z
	 M6.1,9.6C6.4,9.8,6.7,9.9,7,9.9C7.2,10,7.3,10,7.5,10C8.9,10,10,8.9,10,7.5C10,6.1,8.9,5,7.5,5C7.3,5,7.2,5,7,5.1
	C6.7,5.1,6.4,5.2,6.1,5.4C5.4,5.9,5,6.6,5,7.5C5,8.4,5.4,9.1,6.1,9.6z M18.1,7.6c0.3,0.2,0.6,0.3,0.9,0.4C19.2,8,19.3,8,19.5,8
	C20.9,8,22,6.9,22,5.5C22,4.1,20.9,3,19.5,3c-0.2,0-0.3,0-0.5,0.1c-0.3,0.1-0.6,0.2-0.9,0.4C17.4,3.9,17,4.6,17,5.5
	C17,6.4,17.4,7.1,18.1,7.6z M12,14v1c2.2,0,4,1.8,4,4s-1.8,4-4,4s-4-1.8-4-4h0.5c1.4,0,2.5-1.1,2.5-2.5v-3c0-1.4-1.1-2.5-2.5-2.5
	S6,12.1,6,13.5v2.6c-1.7,0.4-3,2-3,3.9v4h3v-4c0-0.6,0.4-1,1-1c0,2.8,2.2,5,5,5s5-2.2,5-5S14.8,14,12,14z"/>
</svg>
