<?xml version="1.0" encoding="utf-8"?>
<!-- Generator: Adobe Illustrator 25.2.3, SVG Export Plug-In . SVG Version: 6.00 Build 0)  -->
<svg version="1.1" id="_x32_稿-調整" xmlns="http://www.w3.org/2000/svg" xmlns:xlink="http://www.w3.org/1999/xlink" x="0px"
	 y="0px" viewBox="0 0 26 26" style="enable-background:new 0 0 26 26;" xml:space="preserve" width="26" height="26">
<style type="text/css">
	.st0{fill:#51565B;}
	.st1{fill:#FFFFFF;}
</style>
<path class="st0" d="M7.5,10C8.9,10,10,8.9,10,7.5C10,6.1,8.9,5,7.5,5C6.1,5,5,6.1,5,7.5C5,8.9,6.1,10,7.5,10z M7.5,6
	C8.3,6,9,6.7,9,7.5S8.3,9,7.5,9S6,8.3,6,7.5S6.7,6,7.5,6z M19.5,8C20.9,8,22,6.9,22,5.5C22,4.1,20.9,3,19.5,3C18.1,3,17,4.1,17,5.5
	C17,6.9,18.1,8,19.5,8z M19.5,4C20.3,4,21,4.7,21,5.5S20.3,7,19.5,7S18,6.3,18,5.5S18.7,4,19.5,4z M12,14v1c2.2,0,4,1.8,4,4
	s-1.8,4-4,4c-2.2,0-4-1.8-4-4h0.5c1.4,0,2.5-1.1,2.5-2.5v-3c0-1.4-1.1-2.5-2.5-2.5S6,12.1,6,13.5v2.6c-1.7,0.4-3,2-3,3.9v4h1v-4
	c0-1.7,1.3-3,3-3v-3.5C7,12.7,7.7,12,8.5,12s1.5,0.7,1.5,1.5v3c0,0.8-0.7,1.5-1.5,1.5H7c-1.1,0-2,0.9-2,2v4h1v-4c0-0.6,0.4-1,1-1
	c0,2.8,2.2,5,5,5s5-2.2,5-5S14.8,14,12,14z M16.9,15.9l1.1-1.1V24h1V12.3l-2.9,2.9L16.9,15.9z M20.5,9c-0.5,0-1.3,0.1-1.9,0.6
	c-0.4,0.4-4,4-4,4l0.7,0.7c0,0,3.6-3.6,4-4c0.2-0.2,0.6-0.4,1.1-0.4c0.8,0,1.5,0.7,1.5,1.5V24h1V11.5C23,10.1,21.9,9,20.5,9z"/>
</svg>
