<?xml version="1.0" encoding="utf-8"?>
<!-- Generator: Adobe Illustrator 25.2.3, SVG Export Plug-In . SVG Version: 6.00 Build 0)  -->
<svg version="1.1" id="_x32_稿-調整" xmlns="http://www.w3.org/2000/svg" xmlns:xlink="http://www.w3.org/1999/xlink" x="0px"
	 y="0px" viewBox="0 0 26 26" style="enable-background:new 0 0 26 26;" xml:space="preserve" width="26" height="26">
<style type="text/css">
	.st0{fill:#51565B;}
	.st1{fill:#FFFFFF;}
</style>
<path class="st0" d="M8,7c1.1,0,2-0.9,2-2c0-1.1-0.9-2-2-2S6,3.9,6,5C6,6.1,6.9,7,8,7z M22,15v-1c0-1.7-1.3-3-3-3h-9v1h9
	c1.1,0,2,0.9,2,2v1H9v-5c0-1.1-0.9-2-2-2s-2,0.9-2,2v2c0,1.7,1.3,3,3,3H4c-0.6,0-1-0.4-1-1V7H2v7c0,1.1,0.9,2,2,2h18
	c0.6,0,1,0.4,1,1s-0.4,1-1,1H2v1h2v4h1v-4h16v4h1v-4c1.1,0,2-0.9,2-2C24,15.9,23.1,15,22,15z"/>
</svg>
