<?xml version="1.0" encoding="utf-8"?>
<!-- Generator: Adobe Illustrator 27.5.0, SVG Export Plug-In . SVG Version: 6.00 Build 0)  -->
<svg version="1.1" id="レイヤー_1" xmlns="http://www.w3.org/2000/svg" xmlns:xlink="http://www.w3.org/1999/xlink" x="0px"
	 y="0px" viewBox="0 0 20 20" style="enable-background:new 0 0 20 20;" xml:space="preserve" width="20" height="20">
<style type="text/css">
	.st0{fill:#FF1287;}
</style>
<g>
</g>
<g>
	<rect x="5" y="5" class="st0" width="10" height="1"/>
</g>
<g>
	<rect x="5" y="8" class="st0" width="10" height="1"/>
</g>
<g>
	<rect x="5" y="11" class="st0" width="4" height="1"/>
</g>
<g>
	<rect x="5" y="14" class="st0" width="4" height="1"/>
</g>
<g>
	<path class="st0" d="M12.4,16.6C11.6,17.4,11,17.1,11,16v-3c0-1.1,0.9-2,2-2h3c1.1,0,1.4,0.6,0.6,1.4L12.4,16.6z"/>
</g>
<polygon class="st0" points="11,18 11,14.5 14.5,11 18,11 14.5,14.5 "/>
<path class="st0" d="M16,2H4C2.9,2,2,2.9,2,4v12c0,1.1,0.9,2,2,2h5v-1H4c-0.6,0-1-0.4-1-1V4c0-0.6,0.4-1,1-1h12c0.6,0,1,0.4,1,1v5h1
	V4C18,2.9,17.1,2,16,2z"/>
</svg>
