<?xml version="1.0" encoding="utf-8"?>
<!-- Generator: Adobe Illustrator 25.0.1, SVG Export Plug-In . SVG Version: 6.00 Build 0)  -->
<svg version="1.1" id="レイヤー_1" xmlns="http://www.w3.org/2000/svg" xmlns:xlink="http://www.w3.org/1999/xlink" x="0px"
	 y="0px" viewBox="0 0 10.6 10.9" style="enable-background:new 0 0 10.6 10.9;" xml:space="preserve" width="11" height="11">
<style type="text/css">
	.st0{fill:#C83232;}
	.st1{fill:#FFFFFF;}
</style>
<g>
	<g>
		<path class="st0" d="M1.3,10.4c-0.3,0-0.6-0.1-0.7-0.3C0.5,10,0.5,9.7,0.6,9.4L4.8,1C5,0.6,5.2,0.5,5.3,0.5S5.6,0.6,5.7,1L10,9.4
			c0.2,0.3,0.2,0.6,0.1,0.8c-0.1,0.2-0.4,0.3-0.7,0.3H1.3z"/>
		<path class="st0" d="M5.3,1.2C5.3,1.2,5.3,1.2,5.3,1.2l4.2,8.4c0.1,0.2,0.1,0.3,0.1,0.3c0,0-0.1,0.1-0.3,0.1h-8
			c-0.2,0-0.3,0-0.3,0c0,0,0,0,0,0c0,0,0-0.1,0.1-0.3L5.3,1.2C5.3,1.2,5.3,1.2,5.3,1.2 M5.3,0C5,0,4.6,0.2,4.4,0.7L0.2,9.2
			c-0.5,1,0,1.8,1.1,1.8h8c1.1,0,1.6-0.8,1.1-1.8L6.2,0.7C5.9,0.2,5.6,0,5.3,0L5.3,0z"/>
	</g>
	<g>
		<path class="st1" d="M4.9,8.5C4.9,8.2,5.1,8,5.3,8c0.3,0,0.5,0.2,0.5,0.5C5.8,8.8,5.6,9,5.3,9C5,9,4.9,8.8,4.9,8.5z M5.6,7.2H5.1
			L5,2.9h0.8L5.6,7.2z"/>
	</g>
</g>
</svg>
