<?xml version="1.0" encoding="utf-8"?>
<!-- Generator: Adobe Illustrator 25.0.1, SVG Export Plug-In . SVG Version: 6.00 Build 0)  -->
<svg version="1.1" id="レイヤー_1" xmlns="http://www.w3.org/2000/svg" xmlns:xlink="http://www.w3.org/1999/xlink" x="0px"
	 y="0px" viewBox="0 0 20 20" style="enable-background:new 0 0 20 20;" xml:space="preserve" width="20" height="20">
<style type="text/css">
	.st0{fill:#C83232;}
	.st1{fill:#FFFFFF;}
</style>
<g>
	<path class="st0" d="M10,0C4.5,0,0,4.5,0,10s4.5,10,10,10s10-4.5,10-10S15.5,0,10,0z M10.6,5.4l-0.2,6.6H9.6L9.4,5.4H10.6z
		 M10,14.6c-0.4,0-0.7-0.3-0.7-0.7c0-0.4,0.3-0.8,0.7-0.8c0.4,0,0.7,0.3,0.7,0.8C10.7,14.3,10.4,14.6,10,14.6z"/>
	<path class="st1" d="M10,13.1c-0.4,0-0.7,0.3-0.7,0.8c0,0.4,0.3,0.7,0.7,0.7c0.4,0,0.7-0.3,0.7-0.7C10.7,13.4,10.4,13.1,10,13.1z"
		/>
	<polygon class="st1" points="10.4,11.9 10.6,5.4 9.4,5.4 9.6,11.9 	"/>
</g>
</svg>
