<?xml version="1.0" encoding="utf-8"?>
<!-- Generator: Adobe Illustrator 25.0.1, SVG Export Plug-In . SVG Version: 6.00 Build 0)  -->
<svg version="1.1" id="レイヤー_1" xmlns="http://www.w3.org/2000/svg" xmlns:xlink="http://www.w3.org/1999/xlink" x="0px"
	 y="0px" viewBox="0 0 30 30" style="enable-background:new 0 0 30 30;" xml:space="preserve">
<style type="text/css">
	.st0{fill:#00A3B1;}
</style>
<path class="st0" d="M8.7,11c1.6,0,2.9-1.3,2.9-2.9c0-1.6-1.3-2.9-2.9-2.9c-1.6,0-2.9,1.3-2.9,2.9C5.8,9.7,7.1,11,8.7,11z M8.7,6.3
	c1,0,1.7,0.8,1.7,1.7S9.6,9.8,8.7,9.8S6.9,9,6.9,8.1S7.7,6.3,8.7,6.3z M22.5,8.7c1.6,0,2.9-1.3,2.9-2.9c0-1.6-1.3-2.9-2.9-2.9
	c-1.6,0-2.9,1.3-2.9,2.9C19.6,7.4,20.9,8.7,22.5,8.7z M22.5,4c1,0,1.7,0.8,1.7,1.7s-0.8,1.7-1.7,1.7s-1.7-0.8-1.7-1.7S21.5,4,22.5,4
	z M13.8,15.6v1.2c2.5,0,4.6,2.1,4.6,4.6S16.4,26,13.8,26c-2.5,0-4.6-2.1-4.6-4.6h0.6c1.6,0,2.9-1.3,2.9-2.9V15
	c0-1.6-1.3-2.9-2.9-2.9S6.9,13.4,6.9,15v3c-2,0.5-3.5,2.3-3.5,4.5v4.6h1.2v-4.6c0-1.9,1.5-3.5,3.5-3.5v-4c0-1,0.8-1.7,1.7-1.7
	s1.7,0.8,1.7,1.7v3.5c0,1-0.8,1.7-1.7,1.7H8.1c-1.3,0-2.3,1-2.3,2.3v4.6h1.2v-4.6c0-0.6,0.5-1.2,1.2-1.2c0,3.2,2.6,5.8,5.8,5.8
	s5.8-2.6,5.8-5.8S17,15.6,13.8,15.6z M19.4,17.7l1.3-1.3v10.7h1.2V13.6l-3.3,3.3L19.4,17.7z M23.7,9.8c-0.5,0-1.5,0.1-2.1,0.7
	c-0.4,0.4-4.6,4.6-4.6,4.6l0.8,0.8c0,0,4.2-4.2,4.6-4.6c0.3-0.3,0.7-0.4,1.3-0.4c1,0,1.7,0.8,1.7,1.7v14.4h1.2V12.7
	C26.5,11.1,25.2,9.8,23.7,9.8z"/>
</svg>
