<?xml version="1.0" encoding="utf-8"?>
<!-- Generator: Adobe Illustrator 25.0.1, SVG Export Plug-In . SVG Version: 6.00 Build 0)  -->
<svg version="1.1" id="レイヤー_1" xmlns="http://www.w3.org/2000/svg" xmlns:xlink="http://www.w3.org/1999/xlink" x="0px"
	 y="0px" viewBox="0 0 30 30" style="enable-background:new 0 0 30 30;" xml:space="preserve" width="30" height="30">
<style type="text/css">
	.st0{fill:#009EAC;}
</style>
<g>
	<path class="st0" d="M18,2c-5.5,0-10,4.5-10,10c0,0.6,0.1,1.2,0.2,1.7h1.2c-0.2-0.5-0.3-1.1-0.3-1.7c0-4.9,4-8.9,8.9-8.9
		s8.9,4,8.9,8.9c0,3.4-1.9,6.3-4.7,7.8v1.3c3.5-1.5,5.9-5.1,5.9-9.1C28,6.5,23.5,2,18,2z M18.6,15v1.2c0.6,0,1.2,0.5,1.2,1.2v8.3
		c0,0.6-0.5,1.2-1.2,1.2H4.4c-0.6,0-1.2-0.5-1.2-1.2v-8.4c0-0.6,0.5-1.2,1.2-1.2v-1.2C3,15,2,16,2,17.4v8.3C2,27,3,28,4.4,28h14.1
		c1.3,0,2.4-1,2.4-2.4v-8.3C20.9,16,19.8,15,18.6,15z M15,15H7.9v1.2H15C15,16.2,15,15,15,15z M9.7,19.4l-0.8-0.8l-1.6,1.6l-0.8-0.8
		l-0.8,0.8l1.6,1.6L9.7,19.4z M9.7,22.9l-0.8-0.8l-1.6,1.6l-0.8-0.8l-0.8,0.8l1.6,1.6L9.7,22.9z M10.3,20.9h7.1v-1.2h-7.1V20.9z
		 M6.7,13.8H5.6v3.6h1.2v-3.6H6.7z M17.4,13.8h-1.2v3.6h1.2V13.8z M17.4,4.4v8.3h7.1v-1.2h-5.9V4.4H17.4z M10.3,24.4h7.1v-1.2h-7.1
		V24.4z"/>
</g>
</svg>
