<?xml version="1.0" encoding="utf-8"?>
<!-- Generator: Adobe Illustrator 27.5.0, SVG Export Plug-In . SVG Version: 6.00 Build 0)  -->
<svg version="1.1" id="レイヤー_1" xmlns="http://www.w3.org/2000/svg" xmlns:xlink="http://www.w3.org/1999/xlink" x="0px"
	 y="0px" viewBox="0 0 26 26" style="enable-background:new 0 0 26 26;" xml:space="preserve" width="26" height="26">
<style type="text/css">
	.st0{display:none;}
	.st1{display:inline;}
	.st2{fill:#51565B;}
	.st3{display:inline;fill:none;stroke:#51565B;stroke-linejoin:bevel;stroke-miterlimit:10;}
	.st4{display:inline;fill:#51565B;}
	.st5{display:inline;fill:none;stroke:#51565B;stroke-miterlimit:10;}
	.st6{display:inline;fill:#FF00FF;}
	.st7{font-family:'KozGoPr6N-Regular-90ms-RKSJ-H';}
	.st8{font-size:5px;}
	.st9{fill:#009EAC;}
</style>
<g id="初稿" class="st0">
	<g class="st1">
		<path class="st2" d="M16,6c1.1,0,2,0.9,2,2s-0.9,2-2,2s-2-0.9-2-2S14.9,6,16,6 M16,5c-1.7,0-3,1.3-3,3s1.3,3,3,3s3-1.3,3-3
			S17.7,5,16,5L16,5z"/>
	</g>
	<polyline class="st3" points="14,16 16,11 18,16 	"/>
	<line class="st3" x1="8" y1="11.5" x2="12" y2="11.5"/>
	<line class="st3" x1="8" y1="15.5" x2="12" y2="15.5"/>
	<line class="st3" x1="8" y1="19.5" x2="18" y2="19.5"/>
	<path class="st4" d="M6,24v-1c-0.6,0-1-0.4-1-1H4C4,23.1,4.9,24,6,24z"/>
	<path class="st4" d="M22,22h-1c0,0.6-0.4,1-1,1v1C21.1,24,22,23.1,22,22z"/>
	<path class="st4" d="M20,2v1c0.6,0,1,0.4,1,1h1C22,2.9,21.1,2,20,2z"/>
	<rect x="4" y="9" class="st4" width="1" height="13"/>
	<rect x="21" y="4" class="st4" width="1" height="18"/>
	<rect x="6" y="23" class="st4" width="14" height="1"/>
	<rect x="12" y="2" class="st4" width="8" height="1"/>
	<path class="st4" d="M11,7h-1c0,0.6-0.4,1-1,1v1C10.1,9,11,8.1,11,7z"/>
	<rect x="5" y="8" class="st4" width="4" height="1"/>
	<rect x="10" y="3" class="st4" width="1" height="4"/>
	<polyline class="st5" points="11,2.5 10.5,2.5 4.5,8.5 4.5,9 	"/>
	<text transform="matrix(1 0 0 1 7.3286 -1.4973)" class="st6 st7 st8">入外</text>
</g>
<g id="初稿-サブ" class="st0">
</g>
<g id="初稿-調整" class="st0">
	<path class="st4" d="M19,8c0-1.7-1.3-3-3-3s-3,1.3-3,3c0,1.5,1.1,2.7,2.5,2.9l-1.9,4.9l0.9,0.4l1.5-3.8l1.5,3.8l0.9-0.4l-1.9-4.9
		C17.9,10.7,19,9.5,19,8z M16,10c-1.1,0-2-0.9-2-2s0.9-2,2-2s2,0.9,2,2S17.1,10,16,10z M8,12h4v-1H8V12z M8,15v1h4v-1H8z M8,20h10
		v-1H8V20z M20,2L20,2h-8v1h8l0,0c0.6,0,1,0.4,1,1v18c0,0.6-0.4,1-1,1H6c-0.6,0-1-0.4-1-1V9h4l0,0c1.1,0,2-0.9,2-2V2h-0.7L4,8.3V22
		c0,1.1,0.9,2,2,2h14c1.1,0,2-0.9,2-2V4C22,2.9,21.1,2,20,2z M10,3.7V7c0,0.6-0.4,1-1,1H5.7L10,3.7z"/>
</g>
<g id="_x32_稿" class="st0">
	<path class="st4" d="M6,22v-1c-0.6,0-1-0.4-1-1H4C4,21.1,4.9,22,6,22z"/>
	<path class="st4" d="M22,20h-1c0,0.6-0.4,1-1,1v1C21.1,22,22,21.1,22,20z"/>
	<rect x="4" y="6" class="st4" width="1" height="14"/>
	<rect x="21" y="10" class="st4" width="1" height="10"/>
	<rect x="6" y="21" class="st4" width="14" height="1"/>
	<path class="st4" d="M6,4v1C5.4,5,5,5.4,5,6H4C4,4.9,4.9,4,6,4z"/>
	<rect x="6" y="4" class="st4" width="14" height="1"/>
	<g class="st1">
		<polygon class="st2" points="12,17 7,12 8,11 12,15 22,5 23,6 		"/>
	</g>
</g>
<g id="_x32_稿-サブ" class="st0">
</g>
<g id="_x32_稿-調整">
	<path class="st9" d="M21,20c0,0.6-0.4,1-1,1H6c-0.6,0-1-0.4-1-1V6c0-0.6,0.4-1,1-1h14V4H6C4.9,4,4,4.9,4,6v14c0,1.1,0.9,2,2,2h14
		c1.1,0,2-0.9,2-2V10h-1V20z M8,11l-1,1l5,5L23,6l-1-1L12,15L8,11z"/>
</g>
<g id="_x32_稿-ゴミ" class="st0">
</g>
<g id="パーツ残骸" class="st0">
</g>
<g id="レイヤー_8" class="st0">
</g>
</svg>
