<?xml version="1.0" encoding="utf-8"?>
<!-- Generator: Adobe Illustrator 25.0.1, SVG Export Plug-In . SVG Version: 6.00 Build 0)  -->
<svg version="1.1" id="レイヤー_1" xmlns="http://www.w3.org/2000/svg" xmlns:xlink="http://www.w3.org/1999/xlink" x="0px"
	 y="0px" viewBox="0 0 30 30" style="enable-background:new 0 0 30 30;" xml:space="preserve" width="30" height="30">
<style type="text/css">
	.st0{fill:#00A1AF;}
</style>
<path class="st0" d="M9.2,8.1c1.3,0,2.3-1,2.3-2.3c0-1.3-1-2.3-2.3-2.3s-2.3,1-2.3,2.3C6.9,7,8,8.1,9.2,8.1z M25.4,17.3v-1.2
	c0-1.9-1.5-3.5-3.5-3.5H11.5v1.2h10.4c1.3,0,2.3,1,2.3,2.3v1.2H10.4v-5.8c0-1.3-1-2.3-2.3-2.3s-2.3,1-2.3,2.3v2.3
	c0,1.9,1.5,3.5,3.5,3.5H4.6c-0.6,0-1.2-0.5-1.2-1.2V8.1H2.3v8.1c0,1.3,1,2.3,2.3,2.3h20.8c0.6,0,1.2,0.5,1.2,1.2s-0.5,1.2-1.2,1.2
	H2.3v1.2h2.3v4.6h1.2v-4.6h18.5v4.6h1.2v-4.6c1.3,0,2.3-1,2.3-2.3C27.7,18.3,26.7,17.3,25.4,17.3z"/>
</svg>
